<?xml version="1.0" standalone="no"?>
<!DOCTYPE svg PUBLIC "-//W3C//DTD SVG 1.1//EN" "http://www.w3.org/Graphics/SVG/1.1/DTD/svg11.dtd" >
<svg>
<metadata>
Created by FontForge 20090914 at Sat Mar  1 04:50:21 2014
 By www-data
Copyright (c) 1988, 1991, 1995 Adobe Systems Incorporated.  All Rights Reserved.Belwe is a trademark of Esselte Pendaflex Corporation in the USA, of Letraset Canada Ltd. in Canada, and of Esselte Letraset Ltd. elsewhere.
</metadata>
<defs>
<font id="Belwe-Condensed" horiz-adv-x="500" >
  <font-face 
    font-family="Belwe-Condensed"
    font-weight="400"
    font-stretch="expanded"
    units-per-em="1000"
    panose-1="2 2 5 0 0 0 0 0 0 0"
    ascent="800"
    descent="-200"
    x-height="491"
    cap-height="683"
    bbox="-51 -250 1000 930"
    underline-thickness="50"
    underline-position="-50"
    unicode-range="U+0020-U+2122"
  />
<missing-glyph horiz-adv-x="502" 
d="M-1 0h500v500h-500v-500zM9 10v480h480v-480h-480z" />
    <glyph glyph-name=".notdef" horiz-adv-x="502" 
d="M-1 0h500v500h-500v-500zM9 10v480h480v-480h-480z" />
    <glyph glyph-name="space" unicode=" " horiz-adv-x="203" 
 />
    <glyph glyph-name="exclam" unicode="!" horiz-adv-x="278" 
d="M81 71c0 -18.667 5.33301 -36.5 16 -53.5s25 -25.5 43 -25.5s32.333 8.5 43 25.5s16 34.833 16 53.5s-5.33301 36.5 -16 53.5s-25 25.5 -43 25.5s-32.333 -8.5 -43 -25.5s-16 -34.833 -16 -53.5zM168 206c0 48 3.16504 93.667 9.49805 137s14.833 92.333 25.5 147
c11.333 56.667 17 93 17 109c0 27.333 -7.16699 50.833 -21.5 70.5s-34.166 29.5 -59.499 29.5s-45.166 -9.83301 -59.499 -29.5s-21.5 -43.167 -21.5 -70.5c0 -16 5.66699 -52.333 17 -109c10.667 -54.667 19.167 -103.667 25.5 -147s9.5 -89 9.5 -137h58z" />
    <glyph glyph-name="quotedbl" unicode="&#x22;" horiz-adv-x="333" 
d="M128 618c0 3.33301 0.333008 6.66797 1 10.001v9c0 18.667 -3.83301 33.667 -11.5 45s-21.167 17 -40.5 17s-32.833 -5.66699 -40.5 -17s-11.5 -27 -11.5 -47c0 -2.66699 0.333008 -5.33398 1 -8.00098v-9l20 -204c1.33301 -8 4.83301 -15.167 10.5 -21.5
s12.5 -9.5 20.5 -9.5s14.833 3.16699 20.5 9.5s9.16699 13.5 10.5 21.5zM307 618.002c0 3.33301 0.333008 6.66797 1 10.001v9c0 18.667 -3.83301 33.667 -11.5 45s-21.167 17 -40.5 17s-32.833 -5.66699 -40.5 -17s-11.5 -27 -11.5 -47
c0 -2.66699 0.333008 -5.33398 1 -8.00098v-9l20 -204c1.33301 -8 4.83301 -15.167 10.5 -21.5s12.5 -9.5 20.5 -9.5s14.833 3.16699 20.5 9.5s9.16699 13.5 10.5 21.5z" />
    <glyph glyph-name="numbersign" unicode="#" horiz-adv-x="407" 
d="M373 228h-63l18 138h70v77h-60l20 151h-75l-20 -151h-78l20 151h-74l-20 -151h-75v-77h65l-18 -138h-73v-77h63l-20 -151h74l20 151h78l-20 -151h75l20 151h73v77zM253 366l-18 -138h-78l18 138h78z" />
    <glyph glyph-name="dollar" unicode="$" horiz-adv-x="407" 
d="M160 -82h87v94c16 4 31.333 11.333 46 22s28 23.5 40 38.5s21.333 31.5 28 49.5s10 36.333 10 55c0 20.667 -3.83301 40 -11.5 58s-18.167 35 -31.5 51c-16.667 20.667 -46 47.334 -88 80.001c-30 22.667 -52 41.5 -66 56.5s-21 30.833 -21 47.5
c0 29.333 14.667 44 44 44c10 0 20.333 -3.5 31 -10.5s21 -16.333 31 -28s18.667 -23.834 26 -36.501s13 -24.334 17 -35.001l66 105c-12 18.667 -28.5 34.834 -49.5 48.501s-44.833 22.5 -71.5 26.5v78h-87v-81c-32 -9.33301 -59 -29 -81 -59s-33 -64.333 -33 -103
c0 -21.333 4 -41.5 12 -60.5s18.5 -36.5 31.5 -52.5s26.833 -30.333 41.5 -43l54 -45c28 -22.667 48.167 -40.5 60.5 -53.5s18.5 -26.167 18.5 -39.5c0 -12 -4.5 -22.167 -13.5 -30.5s-20.5 -12.5 -34.5 -12.5c-9.33301 0 -20.166 3.66699 -32.499 11s-25 17.333 -38 30
s-25.333 26.167 -37 40.5s-21.834 28.5 -30.501 42.5l-82 -113c22 -24.667 46 -44.167 72 -58.5s56.667 -23.5 92 -27.5v-89z" />
    <glyph glyph-name="percent" unicode="%" horiz-adv-x="611" 
d="M104 -15h50l354 624h-50zM162 609c-40.667 0 -74.667 -14.833 -102 -44.5s-41 -75.167 -41 -136.5c0 -51.333 12.167 -92.5 36.5 -123.5s52.5 -46.5 84.5 -46.5c41.333 0 75.5 14.833 102.5 44.5s40.5 75.167 40.5 136.5c0 51.333 -12.167 92.5 -36.5 123.5
s-52.5 46.5 -84.5 46.5zM126 547c12.667 0 24.667 -6.83398 36 -20.501s20.833 -30.167 28.5 -49.5s13.834 -38.833 18.501 -58.5s7 -34.5 7 -44.5c0 -16.667 -3.33301 -29.834 -10 -39.501s-16.667 -14.5 -30 -14.5c-12.667 0 -24.667 6.83301 -36 20.5
s-20.833 30.334 -28.5 50.001s-13.834 39.167 -18.501 58.5s-7 34 -7 44c0 16.667 3.33301 29.834 10 39.501s16.667 14.5 30 14.5zM471 335.999c-40.667 0 -74.667 -14.833 -102 -44.5s-41 -75.167 -41 -136.5c0 -51.333 12.167 -92.5 36.5 -123.5s52.5 -46.5 84.5 -46.5
c41.333 0 75.5 14.833 102.5 44.5s40.5 75.167 40.5 136.5c0 51.333 -12.167 92.5 -36.5 123.5s-52.5 46.5 -84.5 46.5zM435 273.999c12.667 0 24.667 -6.83398 36 -20.501s20.833 -30.167 28.5 -49.5s13.834 -38.833 18.501 -58.5s7 -34.5 7 -44.5
c0 -16.667 -3.33301 -29.834 -10 -39.501s-16.667 -14.5 -30 -14.5c-12.667 0 -24.667 6.83301 -36 20.5s-20.833 30.334 -28.5 50.001s-13.834 39.167 -18.501 58.5s-7 34 -7 44c0 16.667 3.33301 29.834 10 39.501s16.667 14.5 30 14.5z" />
    <glyph glyph-name="ampersand" unicode="&#x26;" horiz-adv-x="611" 
d="M163 247c0 34.667 9.33398 63 28.001 85c15.333 -35.333 34.5 -71.5 57.5 -108.5s45.5 -69.167 67.5 -96.5c-12.667 -10.667 -28.334 -16 -47.001 -16c-15.333 0 -29.5 4.16699 -42.5 12.5s-24.333 19.5 -34 33.5s-17 29 -22 45s-7.5 31 -7.5 45zM243.001 573
c0 13.333 3.66602 24.5 10.999 33.5s17.333 13.5 30 13.5c12 0 20.833 -4.33301 26.5 -13s8.5 -19 8.5 -31c0 -23.333 -3.16699 -40.5 -9.5 -51.5s-19.166 -24.833 -38.499 -41.5c-7.33301 13.333 -13.833 28.5 -19.5 45.5s-8.5 31.833 -8.5 44.5zM391 369
c19.333 -9.33301 28.9971 -26.002 28.9971 -50.002c0 -16 -1.33301 -30.5 -4 -43.5s-7.33398 -25.833 -14.001 -38.5c-39.333 52 -73.666 112.333 -102.999 181c4 2 9 5 15 9c18.667 10 34.834 19.333 48.501 28s26.334 18.667 38.001 30s21 24.333 28 39
s10.5 31.334 10.5 50.001c0 37.333 -13 67.5 -39 90.5s-58 34.5 -96 34.5c-49.333 0 -89.5 -17.333 -120.5 -52s-46.5 -76.667 -46.5 -126c0 -36.667 7.66699 -73.667 23 -111c-40.667 -25.333 -72.167 -57 -94.5 -95s-33.5 -80.333 -33.5 -127
c0 -59.333 17 -108.166 51 -146.499s80.333 -57.5 139 -57.5c30 0 57.833 5.66699 83.5 17s49.834 28 72.501 50c18 -20.667 36.167 -37 54.5 -49s38.166 -18 59.499 -18c26 0 48.5 9.33301 67.5 28s36.167 42.667 51.5 72l-33 43l-6 -3
c-8.66699 -5.33301 -15.667 -9 -21 -11s-11.666 -3 -18.999 -3c-11.333 0 -24 6.5 -38 19.5s-27.333 27.167 -40 42.5c24.667 64 37 129 37 195h55v69h-155v-67z" />
    <glyph glyph-name="quotesingle" unicode="'" horiz-adv-x="222" 
d="M162 618c0 3.33301 0.333008 6.66797 1 10.001v9c0 18.667 -3.83301 33.667 -11.5 45s-21.167 17 -40.5 17s-32.833 -5.66699 -40.5 -17s-11.5 -27 -11.5 -47c0 -2.66699 0.333008 -5.33398 1 -8.00098v-9l20 -204c1.33301 -8 4.83301 -15.167 10.5 -21.5
s12.5 -9.5 20.5 -9.5s14.833 3.16699 20.5 9.5s9.16699 13.5 10.5 21.5z" />
    <glyph glyph-name="parenleft" unicode="(" horiz-adv-x="333" 
d="M212 699c-50.667 -54.667 -88.667 -118.83 -114 -192.497s-38 -148.834 -38 -225.501s12.667 -151.834 38 -225.501s63.333 -137.834 114 -192.501l62 46c-28 54 -48 112.333 -60 175s-18 128.334 -18 197.001c0 69.333 6 135.166 18 197.499s32 120.5 60 174.5z" />
    <glyph glyph-name="parenright" unicode=")" horiz-adv-x="333" 
d="M59 654c28 -54 48 -112.171 60 -174.504s18 -128.166 18 -197.499c0 -68.667 -6 -134.334 -18 -197.001s-32 -121 -60 -175l62 -46c50.667 54.667 88.667 118.834 114 192.501s38 148.834 38 225.501s-12.667 151.834 -38 225.501s-63.333 137.834 -114 192.501z" />
    <glyph glyph-name="asterisk" unicode="*" 
d="M194 683c8 -20.667 14.1641 -43.667 18.4971 -69s6.83301 -50.666 7.5 -75.999c-26.667 10.667 -50.5 22.167 -71.5 34.5s-39.833 26.5 -56.5 42.5l-35 -120c36.667 0 66 -1 88 -3s42.333 -5 61 -9c-13.333 -18 -29 -34.667 -47 -50s-39.333 -31 -64 -47l96 -74
c14.667 53.333 34.334 103 59.001 149c24.667 -46 44.334 -95.667 59.001 -149l96 74c-24.667 16 -46 31.667 -64 47s-33.667 32 -47 50c19.333 4 39.833 7 61.5 9s50.834 3 87.501 3l-35 120c-16.667 -16 -35.5 -30.167 -56.5 -42.5s-44.833 -23.833 -71.5 -34.5
c0.666992 25.333 3.16699 50.666 7.5 75.999s10.5 48.333 18.5 69h-112z" />
    <glyph glyph-name="plus" unicode="+" horiz-adv-x="600" 
d="M242 304h-186v-116h186v-188h116v188h186v116h-186v187h-116v-187z" />
    <glyph glyph-name="comma" unicode="," horiz-adv-x="203" 
d="M71 -84c29.333 12.667 51.666 33.333 66.999 62s23 59.667 23 93c0 18.667 -5.33301 36.5 -16 53.5s-25 25.5 -43 25.5c-18.667 0 -33.167 -8.33301 -43.5 -25s-15.5 -34.667 -15.5 -54c0 -14 2.66699 -27.833 8 -41.5s13.333 -23.5 24 -29.5
c-2 -10 -5.16699 -17.667 -9.5 -23s-11.166 -11 -20.499 -17z" />
    <glyph glyph-name="hyphen" unicode="-" horiz-adv-x="333" 
d="M290 191v111h-247v-111h247z" />
    <glyph glyph-name="period" unicode="." horiz-adv-x="203" 
d="M43 71c0 -18.667 5.33301 -36.5 16 -53.5s25 -25.5 43 -25.5s32.333 8.5 43 25.5s16 34.833 16 53.5s-5.33301 36.5 -16 53.5s-25 25.5 -43 25.5s-32.333 -8.5 -43 -25.5s-16 -34.833 -16 -53.5z" />
    <glyph glyph-name="slash" unicode="/" horiz-adv-x="278" 
d="M-10 -15h83l234 714h-83z" />
    <glyph glyph-name="zero" unicode="0" horiz-adv-x="407" 
d="M162 502c13.333 0 27.333 -10.834 42 -32.501s28.5 -50.167 41.5 -85.5s23.5 -72.166 31.5 -110.499s12 -72.833 12 -103.5c0 -28 -3.83301 -48 -11.5 -60s-18.167 -18 -31.5 -18s-27.333 10.833 -42 32.5s-28.5 50 -41.5 85s-23.5 71.333 -31.5 109s-12 71.5 -12 101.5
s3.66699 51.167 11 63.5s18 18.5 32 18.5zM212 608.999c-58.667 0 -104.667 -29.5 -138 -88.5s-50 -137.167 -50 -234.5c0 -34.667 3.5 -69.667 10.5 -105s17.667 -67.833 32 -97.5s32.5 -53.5 54.5 -71.5s47 -27 75 -27c58.667 0 104.667 29.333 138 88s50 135.667 50 231
c0 36 -3.5 71.833 -10.5 107.5s-17.667 68.5 -32 98.5s-32.5 54 -54.5 72s-47 27 -75 27z" />
    <glyph glyph-name="one" unicode="1" horiz-adv-x="407" 
d="M276 594h-51c-16 -22.667 -35 -43.5 -57 -62.5s-44.667 -34.5 -68 -46.5v-63c15.333 4 29.333 10.667 42 20v-382h-30v-60h196v60h-32v534z" />
    <glyph glyph-name="two" unicode="2" horiz-adv-x="407" 
d="M309 0l-2 -24.002h56l11 199h-48c-4 -16.667 -10.5 -28.5 -19.5 -35.5s-24.5 -10.5 -46.5 -10.5h-55c54.667 55.333 97 108 127 158s45 103 45 159c0 49.333 -14.5 88.833 -43.5 118.5s-70.167 44.5 -123.5 44.5c-26 0 -50.333 -5 -73 -15s-42.334 -24.167 -59.001 -42.5
s-29.667 -39.666 -39 -63.999s-14 -50.5 -14 -78.5c0 -41.333 8.5 -75.833 25.5 -103.5s40.167 -48.834 69.5 -63.501l74 149c-21.333 10 -37.833 22.667 -49.5 38s-17.5 32 -17.5 50c0 16.667 3.83301 30.167 11.5 40.5s18.5 15.5 32.5 15.5c10.667 0 20 -3.83301 28 -11.5
s14.5 -17.5 19.5 -29.5s8.83301 -24.833 11.5 -38.5s4 -26.5 4 -38.5c0 -33.333 -4.33301 -64.166 -13 -92.499s-20.667 -54.666 -36 -78.999s-31.666 -46.5 -48.999 -66.5s-41 -45.667 -71 -77l-14 -14l9 -88h249z" />
    <glyph glyph-name="three" unicode="3" horiz-adv-x="407" 
d="M149 594l2.99902 16l-56 18l-58 -189l43 -19c10 16.667 21 28.334 33 35.001s27 10 45 10h37l-107 -153l27 -42h19c40.667 0 72.834 -10.5 96.501 -31.5s35.5 -51.5 35.5 -91.5c0 -19.333 -4 -34.666 -12 -45.999s-19.667 -17 -35 -17c-20 0 -39.333 10.833 -58 32.5
s-33.667 47.167 -45 76.5l-102 -131c14.667 -20.667 36 -38.667 64 -54s57 -23 87 -23s57.667 6.83301 83 20.5s46.833 32.167 64.5 55.5s31.167 49.666 40.5 78.999s14 59.333 14 90c0 39.333 -10 74.333 -30 105s-47.333 52.334 -82 65.001l13 18
c19.333 27.333 35.333 49.166 48 65.499s23.667 28.166 33 35.499l-22 75h-179z" />
    <glyph glyph-name="four" unicode="4" horiz-adv-x="407" 
d="M352 0v60h-33v76h39l14 79h-53v283c0 39.333 2 71.333 6 96h-103l-199 -379v-79h162v-76h-35v-60h202zM183 407h2v-192h-102z" />
    <glyph glyph-name="five" unicode="5" horiz-adv-x="407" 
d="M27 67c16.667 -22 37.6699 -41.1689 63.0029 -57.502s52.666 -24.5 81.999 -24.5c23.333 0 46.166 5.83301 68.499 17.5s42.333 28.334 60 50.001s31.667 47.334 42 77.001s15.5 61.5 15.5 95.5c0 53.333 -11.833 97.833 -35.5 133.5s-55.167 53.5 -94.5 53.5
c-30.667 0 -58.667 -5.33301 -84 -16l11 69h162l23 152h-54l-4 -23h-169l-63 -312l59 -23c14 16 38 24 72 24c27.333 0 50.666 -10.167 69.999 -30.5s29 -46.833 29 -79.5c0 -39.333 -16 -59 -48 -59c-17.333 0 -35.5 7.33301 -54.5 22s-37.5 34.667 -55.5 60z" />
    <glyph glyph-name="six" unicode="6" horiz-adv-x="407" 
d="M199 308c14 0 26.665 -5.66895 37.998 -17.002s20.833 -25.833 28.5 -43.5s13.667 -35.667 18 -54s6.5 -34.166 6.5 -47.499c0 -43.333 -13 -65 -39 -65c-13.333 0 -25.666 5.66699 -36.999 17s-20.666 25.833 -27.999 43.5s-13 35.834 -17 54.501s-6 34.667 -6 48
c0 42.667 12 64 36 64zM379.998 556.998c-13.333 14.667 -30.832 27.001 -52.499 37.001s-45.167 15 -70.5 15c-36.667 0 -69.667 -9.33301 -99 -28s-54 -44.167 -74 -76.5s-35.167 -69.5 -45.5 -111.5s-15.5 -85.667 -15.5 -131c0 -32.667 3.33301 -65.334 10 -98.001
s17.167 -62.5 31.5 -89.5s33.166 -48.667 56.499 -65s50.666 -24.5 81.999 -24.5c28 0 53.333 6.66699 76 20s41.834 31.833 57.501 55.5s27.667 50.667 36 81s12.5 61.833 12.5 94.5c0 45.333 -12.667 83.666 -38 114.999s-58.333 47 -99 47c-20 0 -37.667 -3 -53 -9
s-29.666 -15 -42.999 -27c-2.66699 12.667 -4 28.334 -4 47.001c0 26.667 5.5 50.667 16.5 72s27.833 32 50.5 32c15.333 0 27.666 -5.5 36.999 -16.5s19.333 -26.833 30 -47.5l1 -2z" />
    <glyph glyph-name="seven" unicode="7" horiz-adv-x="407" 
d="M45 423l40.002 -9c9.33301 17.333 20.666 30.166 33.999 38.499s30.666 12.5 51.999 12.5h92c-18 -28 -35.167 -56.333 -51.5 -85s-32.833 -62.167 -49.5 -100.5s-30.5 -79.5 -41.5 -123.5s-16.5 -88 -16.5 -132v-24h138v71c0 76 10.5 153.833 31.5 233.5
s52.833 151.834 95.5 216.501l-32 73h-203v27l-53 7z" />
    <glyph glyph-name="eight" unicode="8" horiz-adv-x="407" 
d="M133 211c0 32 8.99902 52.667 26.999 62l24 -18c30.667 -22 55.667 -42.5 75 -61.5s29 -38.5 29 -58.5c0 -10.667 -3.66699 -19.834 -11 -27.501s-18.666 -11.5 -33.999 -11.5c-11.333 0 -23.5 3.5 -36.5 10.5s-25.167 16.167 -36.5 27.5s-20.333 23.833 -27 37.5
s-10 26.834 -10 39.501zM188.999 540c10.667 0 20.833 -3.33008 30.5 -9.99707s18.167 -15.334 25.5 -26.001s13.166 -21.834 17.499 -33.501s6.5 -22.834 6.5 -33.501c0 -23.333 -5 -42.666 -15 -57.999c-27.333 12 -51.666 28.167 -72.999 48.5s-32 41.166 -32 62.499
c0 33.333 13.333 50 40 50zM34.998 148.003c0 -47.333 12.9961 -86.333 38.9961 -117s61.333 -46 106 -46c27.333 0 52.833 5.33301 76.5 16s44.167 25.667 61.5 45s30.833 41.833 40.5 67.5s14.5 52.834 14.5 81.501c0 31.333 -5.66699 59 -17 83
s-28.666 46.333 -51.999 67c16.667 17.333 29.834 36.333 39.501 57s14.5 44 14.5 70c0 39.333 -12.5 72 -37.5 98s-57.833 39 -98.5 39c-21.333 0 -42.166 -4 -62.499 -12s-38.5 -19.333 -54.5 -34s-28.5 -31.834 -37.5 -51.501s-13.5 -40.5 -13.5 -62.5
c0 -29.333 4.83301 -55.5 14.5 -78.5s24.834 -42.5 45.501 -58.5c-25.333 -20 -44.833 -43.333 -58.5 -70s-20.5 -58 -20.5 -94z" />
    <glyph glyph-name="nine" unicode="9" horiz-adv-x="407" 
d="M208 286c-13.333 0 -25.665 5.66895 -36.998 17.002s-21 25.833 -29 43.5s-14.167 35.667 -18.5 54s-6.5 34.166 -6.5 47.499c0 43.333 13 65 39 65c13.333 0 25.666 -5.66699 36.999 -17s20.666 -25.833 27.999 -43.5s13 -35.834 17 -54.501s6 -34.667 6 -48
c0 -42.667 -12 -64 -36 -64zM27.001 37.002c13.333 -14.667 30.832 -27.001 52.499 -37.001s45.167 -15 70.5 -15c36.667 0 69.667 9.33301 99 28s54 44.167 74 76.5s35.167 69.5 45.5 111.5s15.5 85.667 15.5 131c0 32.667 -3.33301 65.334 -10 98.001
s-17.167 62.5 -31.5 89.5s-33.166 48.667 -56.499 65s-50.666 24.5 -81.999 24.5c-28 0 -53.333 -6.66699 -76 -20s-41.834 -31.833 -57.501 -55.5s-27.667 -50.667 -36 -81s-12.5 -61.833 -12.5 -94.5c0 -45.333 12.667 -83.666 38 -114.999s58.333 -47 99 -47
c20 0 37.667 3 53 9s29.666 15 42.999 27c2.66699 -12.667 4 -28.334 4 -47.001c0 -26.667 -5.5 -50.667 -16.5 -72s-27.833 -32 -50.5 -32c-15.333 0 -27.666 5.5 -36.999 16.5s-19.333 26.833 -30 47.5l-1 2z" />
    <glyph glyph-name="colon" unicode=":" horiz-adv-x="203" 
d="M43 318c0 -18.667 5.33301 -36.5 16 -53.5s25 -25.5 43 -25.5s32.333 8.5 43 25.5s16 34.833 16 53.5s-5.33301 36.5 -16 53.5s-25 25.5 -43 25.5s-32.333 -8.5 -43 -25.5s-16 -34.833 -16 -53.5zM43 71c0 -18.667 5.33301 -36.5 16 -53.5s25 -25.5 43 -25.5
s32.333 8.5 43 25.5s16 34.833 16 53.5s-5.33301 36.5 -16 53.5s-25 25.5 -43 25.5s-32.333 -8.5 -43 -25.5s-16 -34.833 -16 -53.5z" />
    <glyph glyph-name="semicolon" unicode=";" horiz-adv-x="203" 
d="M71 -84c29.333 12.667 51.666 33.333 66.999 62s23 59.667 23 93c0 18.667 -5.33301 36.5 -16 53.5s-25 25.5 -43 25.5c-18.667 0 -33.167 -8.33301 -43.5 -25s-15.5 -34.667 -15.5 -54c0 -14 2.66699 -27.833 8 -41.5s13.333 -23.5 24 -29.5
c-2 -10 -5.16699 -17.667 -9.5 -23s-11.166 -11 -20.499 -17zM43 317.999c0 -18.667 5.33301 -36.5 16 -53.5s25 -25.5 43 -25.5s32.333 8.5 43 25.5s16 34.833 16 53.5s-5.33301 36.5 -16 53.5s-25 25.5 -43 25.5s-32.333 -8.5 -43 -25.5s-16 -34.833 -16 -53.5z" />
    <glyph glyph-name="less" unicode="&#x3c;" horiz-adv-x="600" 
d="M554 100l-352 146l352 145v115l-508 -213v-94l508 -214v115z" />
    <glyph glyph-name="equal" unicode="=" horiz-adv-x="600" 
d="M56 292h488v116h-488v-116zM56 82h488v116h-488v-116z" />
    <glyph glyph-name="greater" unicode="&#x3e;" horiz-adv-x="600" 
d="M46 100v-115l508 214v94l-508 213v-115l352 -145z" />
    <glyph glyph-name="question" unicode="?" horiz-adv-x="389" 
d="M214 206c0 34 6.00195 61.8311 18.002 83.498s30 46.167 54 73.5c25.333 27.333 44.333 52.833 57 76.5s19 54.167 19 91.5c0 21.333 -3.5 42.166 -10.5 62.499s-17.333 38.5 -31 54.5s-29.834 28.5 -48.501 37.5s-39 13.5 -61 13.5
c-24.667 0 -48.167 -4.66699 -70.5 -14s-41.833 -22.666 -58.5 -39.999s-29.667 -37.166 -39 -59.499s-14 -45.833 -14 -70.5c0 -21.333 2 -43.833 6 -67.5s8.66699 -41.167 14 -52.5l123 64c-8 22.667 -14 42 -18 58s-6 32.333 -6 49s3 29.334 9 38.001s13.667 13 23 13
c13.333 0 23.666 -7 30.999 -21s11 -31.667 11 -53c0 -27.333 -3.33301 -50 -10 -68s-16.667 -38.667 -30 -62c-18 -30.667 -31.667 -60.167 -41 -88.5s-14 -67.833 -14 -118.5h87zM115.002 70.998c0 -18.667 5.33301 -36.5 16 -53.5s25 -25.5 43 -25.5s32.333 8.5 43 25.5
s16 34.833 16 53.5s-5.33301 36.5 -16 53.5s-25 25.5 -43 25.5s-32.333 -8.5 -43 -25.5s-16 -34.833 -16 -53.5z" />
    <glyph glyph-name="at" unicode="@" horiz-adv-x="800" 
d="M502 414c0 -20 -2.33398 -41.667 -7.00098 -65s-11.5 -45.5 -20.5 -66.5s-20.5 -38 -34.5 -51s-29.667 -19.5 -47 -19.5c-14 0 -24.5 7.66699 -31.5 23s-10.5 36.333 -10.5 63c0 18 3.16699 37 9.5 57s14.833 38.5 25.5 55.5s22.834 30.667 36.501 41
s27.167 15.5 40.5 15.5c14 0 24 -4.33301 30 -13s9 -22 9 -40zM527.999 481l-2.00098 -0.00585938c-4.66699 14.667 -12.667 26.667 -24 36s-26 14 -44 14c-30 0 -57.667 -7.83301 -83 -23.5s-47 -36.167 -65 -61.5s-31.833 -53.166 -41.5 -83.499s-14.5 -59.5 -14.5 -87.5
c0 -35.333 9 -65.5 27 -90.5s41 -37.5 69 -37.5c9.33301 0 20.166 2 32.499 6s24.5 9.66699 36.5 17s22.5 15.5 31.5 24.5s15.833 18.167 20.5 27.5h2c0.666992 -18 10.834 -35 30.501 -51s40.5 -24 62.5 -24c29.333 0 56.166 7.5 80.499 22.5s44.833 34.833 61.5 59.5
s29.334 51.5 38.001 80.5s13 57.167 13 84.5c0 46 -9 88 -27 126s-43 70.333 -75 97s-68.5 47 -109.5 61s-83.833 21 -128.5 21c-52.667 0 -101.834 -9.16699 -147.501 -27.5s-85.834 -44.5 -120.501 -78.5s-61.5 -73.833 -80.5 -119.5s-28.5 -94.834 -28.5 -147.501
c0 -44.667 9.5 -87.667 28.5 -129s45.833 -78 80.5 -110s75.834 -57.167 123.501 -75.5s98.834 -27.5 153.501 -27.5c40 0 77.5 5.83301 112.5 17.5s69.5 27.5 103.5 47.5l-10 63c-30 -17.333 -61.667 -29.833 -95 -37.5s-69.666 -11.5 -108.999 -11.5
c-33.333 0 -65.833 6.33301 -97.5 19s-59.834 30.334 -84.501 53.001s-44.167 49.834 -58.5 81.501s-21.5 65.834 -21.5 102.501c0 42 5.83301 81.333 17.5 118s28.5 68.834 50.5 96.501s48.5 49 79.5 64s65.5 22.5 103.5 22.5c33.333 0 65.5 -5.5 96.5 -16.5
s58.667 -26.667 83 -47s43.5 -44.5 57.5 -72.5s21 -58 21 -90c0 -17.333 -2.66699 -37.333 -8 -60s-12.666 -44.5 -21.999 -65.5s-19.5 -38 -30.5 -51s-22.167 -19.5 -33.5 -19.5c-12.667 0.666992 -20.667 4.33398 -24 11.001s-5 20.667 -5 42
c0 8.66699 0.666992 15.334 2 20.001l59 244h-79z" />
    <glyph glyph-name="A" unicode="A" horiz-adv-x="556" 
d="M166 0v79h-32l18 85h175l22 -85h-44v-79h236v79h-30l-167 604h-133l-161 -604h-34v-79h150zM300 252h-127l61 241h2z" />
    <glyph glyph-name="B" unicode="B" horiz-adv-x="556" 
d="M241 356c44.667 -0.666992 75.832 -11.667 93.499 -33s26.5 -57 26.5 -107c0 -28.667 -1.83301 -52.667 -5.5 -72s-8.66699 -34.333 -15 -45s-13.166 -18.167 -20.499 -22.5s-15 -6.5 -23 -6.5c-20 0 -34.333 3.83301 -43 11.5s-13 21.5 -13 41.5v233zM240.998 604
c34.667 0 59.167 -6.33398 73.5 -19.001s21.5 -34.667 21.5 -66c0 -32 -7.66699 -53.167 -23 -63.5s-39.333 -17.166 -72 -20.499v169zM40.998 -0.000976562l248 -0.000976562c84.667 0 145.167 17.833 181.5 53.5s54.5 89.834 54.5 162.501c0 52.667 -12.5 94 -37.5 124
s-63.167 50.667 -114.5 62v2c37.333 8 65.833 22 85.5 42s29.5 49 29.5 87c0 48 -15.667 85 -47 111s-77 39 -137 39h-263v-79h36v-525h-36v-79z" />
    <glyph glyph-name="C" unicode="C" 
d="M472 583l-34 54.0039l-20 -18c-19.333 25.333 -38.833 45 -58.5 59s-42.5 21 -68.5 21c-48.667 0 -90.5 -13.333 -125.5 -40s-62.833 -60.834 -83.5 -102.501s-35.667 -84.834 -45 -129.501s-14 -85.667 -14 -123c0 -36 4.5 -72.667 13.5 -110s22.667 -71.833 41 -103.5
s42 -57.334 71 -77.001s62.5 -29.5 100.5 -29.5c28.667 0 54.5 4.83301 77.5 14.5s43.667 22.834 62 39.501s34.666 34.667 48.999 54s30.5 43.333 48.5 72l-40 49l-6 -7c-20.667 -24 -39.334 -42.167 -56.001 -54.5s-37 -18.5 -61 -18.5
c-29.333 0 -54.166 10.5 -74.499 31.5s-36.166 47.667 -47.499 80s-19.5 65.666 -24.5 99.999s-7.5 65.833 -7.5 94.5c0 18.667 0.833008 37.334 2.5 56.001s5 36.667 10 54s12.5 31.666 22.5 42.999s23 17 39 17s28.833 -7.33301 38.5 -22s14.5 -30.334 14.5 -47.001
c0 -14.667 -1.66699 -27.167 -5 -37.5s-9 -20.833 -17 -31.5l32 -52z" />
    <glyph glyph-name="D" unicode="D" horiz-adv-x="593" 
d="M48 0h212.999c46 -0 87.833 8.83301 125.5 26.5s69.667 42.334 96 74.001s46.333 68.167 60 109.5s20.5 84.666 20.5 129.999c0 59.333 -8.66699 111 -26 155s-41.166 79.833 -71.499 107.5s-65.333 48 -105 61s-82.167 19.5 -127.5 19.5h-185v-79h36v-525h-36v-79z
M247.999 604c32 -2.66699 58.168 -12.666 78.501 -29.999s35.666 -39 45.999 -65s17.333 -52.833 21 -80.5s5.5 -56.167 5.5 -85.5c0 -34.667 -1.5 -66.334 -4.5 -95.001s-9.33301 -56 -19 -82s-25 -47 -46 -63s-48.167 -24 -81.5 -24v525z" />
    <glyph glyph-name="E" unicode="E" horiz-adv-x="519" 
d="M384 444h-135.001v160h89c15.333 0 26.833 -5.66699 34.5 -17s11.5 -25 11.5 -41h63v137h-398v-79h36v-525h-36v-79h398v181h-63c0 -24 -1 -42.5 -3 -55.5s-5.66699 -22.833 -11 -29.5s-13.166 -11.167 -23.499 -13.5s-25.5 -3.5 -45.5 -3.5h-52v286h135v-48h63v176h-63
v-49z" />
    <glyph glyph-name="F" unicode="F" 
d="M285 0v79h-36v286h135v-48h63v176h-63v-49h-135v160h89c15.333 0 26.833 -5.66699 34.5 -17s11.5 -25 11.5 -41h63v137h-398v-79h36v-525h-36v-79h236z" />
    <glyph glyph-name="G" unicode="G" horiz-adv-x="574" 
d="M475 0l44.001 -0.00292969v292c0 34.667 6.66699 65.334 20 92.001l-21 32c-24 -4 -54 -6 -90 -6h-145v-91h72v-215c-31.333 0 -58.166 9.16699 -80.499 27.5s-40 42 -53 71s-22.333 59.333 -28 91s-8.5 62.167 -8.5 91.5c0 22.667 0.833008 45.334 2.5 68.001
s5.66699 46.167 12 70.5s16 44.666 29 60.999s30.167 24.5 51.5 24.5c16.667 0 30.667 -5.5 42 -16.5s17 -24.833 17 -41.5c0 -8 -1.83301 -15.833 -5.5 -23.5s-9.5 -14.167 -17.5 -19.5l37 -44l169 139l-41 48l-23 -18c-21.333 20.667 -43 36.834 -65 48.501
s-45.333 17.5 -70 17.5c-42 0 -81.167 -10 -117.5 -30s-67.833 -47.5 -94.5 -82.5s-47.334 -75.333 -62.001 -121s-22 -93.5 -22 -143.5c0 -42.667 5.33301 -84.167 16 -124.5s26 -76.666 46 -108.999s44.667 -57.833 74 -76.5s61.666 -28 96.999 -28
c68.667 0 130.667 25 186 75z" />
    <glyph glyph-name="H" unicode="H" horiz-adv-x="630" 
d="M582 0v79h-36v525h36v79h-234v-79h34v-160h-134v160h34v79h-234v-79h36v-525h-36v-79h234v79h-34v277h134v-277h-34v-79h234z" />
    <glyph glyph-name="I" unicode="I" horiz-adv-x="333" 
d="M285 0v79h-36v525h36v79h-236v-79h36v-525h-36v-79h236z" />
    <glyph glyph-name="J" unicode="J" horiz-adv-x="333" 
d="M95 604l-0.000976562 -450.999c0 -40.667 -18 -61 -54 -61c-5.33301 0 -12.666 0.666992 -21.999 2l6 -101c8.66699 -2.66699 18.834 -4.83398 30.501 -6.50098s20.5 -2.5 26.5 -2.5c51.333 0 93.666 15.167 126.999 45.5s50 69.833 50 118.5v456h36v79h-236v-79h36z" />
    <glyph glyph-name="K" unicode="K" horiz-adv-x="574" 
d="M285 0l-0.000976562 79h-36v200l26 40h2c8.66699 -26 23.334 -66 44.001 -120c34 -88 57 -154.333 69 -199h183v79h-40l-145 379l105 146h36v79h-174v-79h41l-145 -205h-2v205h36v79h-236v-79h36v-525h-36v-79h236z" />
    <glyph glyph-name="L" unicode="L" horiz-adv-x="463" 
d="M86 79h-36v-79h315v-27h71l6 212h-60c0 -37.333 -7.33301 -64.333 -22 -81s-38.667 -25 -72 -25h-38v525h36v79h-236v-79h36v-525z" />
    <glyph glyph-name="M" unicode="M" horiz-adv-x="685" 
d="M616 604l0.000976562 79.0039h-162c-1.33301 -14 -4.83301 -31.333 -10.5 -52s-12.334 -42.667 -20.001 -66s-16 -47 -25 -71l-28.5 -75l-26 -72h-2l-96 336h-169v-79h34l-42 -525h-34v-79h146v79h-38l25 318h2c12.667 -40.667 19 -61.334 19 -62.001l27.5 -91
c5 -16.667 9.83301 -35.167 14.5 -55.5s9.16699 -42.5 13.5 -66.5s11.166 -64.667 20.499 -122h74c0.666992 2 1.33398 5 2.00098 9c8 52 14.5 92.167 19.5 120.5s10.5 54.166 16.5 77.499s13.667 49.166 23 77.499s22.333 65.166 39 110.499h2l20 -316h-37v-79h227v79h-35
l-35 525h35z" />
    <glyph glyph-name="N" unicode="N" horiz-adv-x="574" 
d="M203 0v79.001h-36v372h2c16.667 -32.667 42 -79.334 76 -140.001c37.333 -67.333 67.5 -124 90.5 -170s42.5 -93.333 58.5 -142h97v605h36v79h-156v-79h36v-270h-2l-185 349h-173v-79h36v-525h-36v-79h156z" />
    <glyph glyph-name="O" unicode="O" horiz-adv-x="593" 
d="M257 620c24.667 0 46.5 -15.6689 65.5 -47.002s34.667 -70.5 47 -117.5s21.5 -92.833 27.5 -137.5s9 -79.334 9 -104.001c0 -54.667 -6.16699 -93.5 -18.5 -116.5s-29.5 -34.5 -51.5 -34.5c-24.667 0 -46.5 15.833 -65.5 47.5s-34.667 70.834 -47 117.501
s-21.5 92.334 -27.5 137.001s-9 79.334 -9 104.001c0 54.667 6.16699 93.5 18.5 116.5s29.5 34.5 51.5 34.5zM284 -16.002c39.333 0 76.168 8.5 110.501 25.5s64.166 41.5 89.499 73.5s45 70.833 59 116.5s21 96.834 21 153.501c0 52 -6.5 99.333 -19.5 142
s-31.333 79.334 -55 110.001s-50.834 54 -81.501 70s-63.667 24 -99 24c-39.333 0 -76.166 -8.33301 -110.499 -25s-64.166 -41.167 -89.499 -73.5s-45 -71.333 -59 -117s-21 -96.834 -21 -153.501c0 -52 6.66699 -99.333 20 -142s31.666 -79.334 54.999 -110.001
s50.5 -54 81.5 -70s63.833 -24 98.5 -24z" />
    <glyph glyph-name="P" unicode="P" horiz-adv-x="556" 
d="M248 604c22 0 40.668 -5.33203 56.001 -15.999s27.333 -25.334 36 -44.001s15 -39.5 19 -62.5s6 -47.5 6 -73.5c0 -18 -0.833008 -35.167 -2.5 -51.5s-4.83398 -31.5 -9.50098 -45.5s-11.667 -25.333 -21 -34s-21 -13 -35 -13c-16 0 -27.833 4.5 -35.5 13.5
s-12.167 24.5 -13.5 46.5v280zM298.001 0.000976562l-0.000976562 79h-50v115h40c160.667 0 241 76.667 241 230c0 50.667 -7.16699 93 -21.5 127s-34.833 60.667 -61.5 80s-58.167 32.833 -94.5 40.5s-78.166 11.5 -125.499 11.5h-178v-79h36v-525h-36v-79h250z" />
    <glyph glyph-name="Q" unicode="Q" horiz-adv-x="593" 
d="M257 620c24.667 0 46.5 -15.6689 65.5 -47.002s34.667 -70.5 47 -117.5s21.5 -92.833 27.5 -137.5s9 -79.334 9 -104.001c0 -54.667 -6.16699 -93.5 -18.5 -116.5s-29.5 -34.5 -51.5 -34.5c-24.667 0 -46.5 15.833 -65.5 47.5s-34.667 70.834 -47 117.501
s-21.5 92.334 -27.5 137.001s-9 79.334 -9 104.001c0 54.667 6.16699 93.5 18.5 116.5s29.5 34.5 51.5 34.5zM166 -122.002c14 7.33301 26.833 12.333 38.5 15s25.167 4 40.5 4s32.666 -4.83301 51.999 -14.5s43.333 -23.5 72 -41.5c26 -16 46.5 -27.833 61.5 -35.5
s27.833 -11.5 38.5 -11.5c0.666992 0 2 0.333008 4 1h3l92 109c-15.333 0 -31 3 -47 9s-36.333 14.667 -61 26c-28.667 14 -53.334 24.667 -74.001 32s-42.667 11.666 -66 12.999v2c35.333 4.66699 67.833 16.5 97.5 35.5s55.5 44.333 77.5 76s39 69.167 51 112.5
s18 91 18 143s-6.5 99.333 -19.5 142s-31.333 79.334 -55 110.001s-50.834 54 -81.501 70s-63.667 24 -99 24c-39.333 0 -76.166 -8.33301 -110.499 -25s-64.166 -41.167 -89.499 -73.5s-45 -71.333 -59 -117s-21 -96.834 -21 -153.501c0 -49.333 6 -94.666 18 -135.999
s28.667 -77 50 -107s46.333 -53.667 75 -71s59.334 -27.333 92.001 -30l-2 -2c-7.33301 0 -18.833 -2.5 -34.5 -7.5s-34.5 -11.5 -56.5 -19.5c-16 -6 -27 -10 -33 -12z" />
    <glyph glyph-name="R" unicode="R" horiz-adv-x="574" 
d="M273 0l0.000976562 78.999h-32v150h1c17.333 1.33301 30 3.66602 38 6.99902c5.33301 -15.333 14.666 -39.666 27.999 -72.999c28.667 -71.333 47 -125.666 55 -162.999h180v79h-36l-82 191c34 14.667 59.833 38.667 77.5 72s26.5 67.333 26.5 102
c0 82.667 -22.167 143.167 -66.5 181.5s-116.833 57.5 -217.5 57.5h-204v-79h36v-525h-36v-79h232zM241.001 603.999c44.667 -0.666992 76.498 -11.833 95.498 -33.5s28.5 -54.167 28.5 -97.5c0 -22.667 -2 -43.667 -6 -63s-10.667 -36.666 -20 -51.999
s-22.166 -27.333 -38.499 -36s-36.166 -13.334 -59.499 -14.001v296z" />
    <glyph glyph-name="S" unicode="S" 
d="M413 683l-20.001 -34c-20 15.333 -39.5 27.5 -58.5 36.5s-37.833 13.5 -56.5 13.5c-28 0 -55 -5.66699 -81 -17s-49.167 -26.833 -69.5 -46.5s-36.166 -42.5 -47.499 -68.5s-17 -53.333 -17 -82c0 -30 5.33301 -56.667 16 -80s24.834 -43.166 42.501 -59.499
s36 -30 55 -41s43.167 -23.833 72.5 -38.5c40.667 -20 70.667 -37.667 90 -53s29 -34.666 29 -57.999c0 -17.333 -6 -30.5 -18 -39.5s-27.667 -13.5 -47 -13.5c-13.333 0 -29.333 4.66699 -48 14s-37.667 21.333 -57 36s-38 30.167 -56 46.5s-34 31.833 -48 46.5l-79 -157
l7 -6c39.333 -30.667 74.333 -54.667 105 -72s62.667 -26 96 -26s65 6.16699 95 18.5s56.333 29.5 79 51.5s40.167 47.833 52.5 77.5s18.5 61.167 18.5 94.5c0 30.667 -5.5 57.667 -16.5 81s-25.5 43.166 -43.5 59.499s-36.5 29.833 -55.5 40.5s-43.167 23 -72.5 37
c-40.667 19.333 -70.334 36.166 -89.001 50.499s-28 32.833 -28 55.5c0 14 5.83301 25.833 17.5 35.5s24.5 14.5 38.5 14.5c24.667 0 48 -8 70 -24s47.333 -38.667 76 -68l21 -22l78 160z" />
    <glyph glyph-name="T" unicode="T" horiz-adv-x="519" 
d="M378 0v79h-36v525c26 -2 46.333 -13.167 61 -33.5s23 -45.166 25 -74.499h66l-16 211h-70l2 -24h-300l2 24h-70l-16 -211h66c2 29.333 10.333 54.166 25 74.499s35 31.5 61 33.5v-525h-36v-79h236z" />
    <glyph glyph-name="U" unicode="U" horiz-adv-x="593" 
d="M373 0h181v79h-36v604h-200v-79h36v-444c0 -22 -5.33301 -37.833 -16 -47.5s-24.667 -14.5 -42 -14.5s-31.333 4.83301 -42 14.5s-16 25.5 -16 47.5v523h-200v-79h36v-465c0 -48.667 13.667 -86.667 41 -114s64 -41 110 -41c26.667 0 52 6.66699 76 20s43 31 57 53z" />
    <glyph glyph-name="V" unicode="V" horiz-adv-x="537" 
d="M212 604h28.999v79h-222v-79h33l137 -534c2.66699 -11.333 5.33398 -28 8.00098 -50c0.666992 -8.66699 1.33398 -15.334 2.00098 -20.001h138c0.666992 2.66699 1.33398 7.33398 2.00098 14.001c4 25.333 8 44.333 12 57l168 579l-27 34c-8 -2 -17.333 -3 -28 -3
c-13.333 0 -26.333 1.33301 -39 4c-10 2 -18.667 3 -26 3c-34.667 0 -62.834 -13.833 -84.501 -41.5s-46.834 -78.167 -75.501 -151.5h-2zM251.999 445c14.667 33.333 27.167 56.333 37.5 69s23.166 19 38.499 19c9.33301 0 21.333 -2.66699 36 -8
c14.667 -4.66699 26.334 -7 35.001 -7l-86 -310h-2z" />
    <glyph glyph-name="W" unicode="W" horiz-adv-x="796" 
d="M486 604l37.001 -0.00195312v79h-236v-79h41l46 -193l-58 -198h-2l-102 391h45v79h-241v-79h34l125 -481c13.333 -52.667 21.333 -93.667 24 -123h138c4 36.667 9.33301 66.334 16 89.001l53 177h2l44 -172c8.66699 -33.333 13 -64.666 13 -93.999h143
c0.666992 13.333 2.66699 28.666 6 45.999s7.66602 36.666 12.999 57.999l125 467l3 10c9.33301 34.667 18 59.667 26 75l-25 25c-12.667 -2 -25.667 -3 -39 -3c-10 0 -18.167 0.5 -24.5 1.5s-12.5 2.5 -18.5 4.5c-9.33301 2.66699 -18 4 -26 4
c-16.667 0 -32 -5.16699 -46 -15.5s-26.167 -23.666 -36.5 -39.999s-19 -32.666 -26 -48.999s-14.167 -35.166 -21.5 -56.499c-4 -10.667 -6.66699 -17.334 -8 -20.001h-2zM582.001 206.998h-1.99902l-56 239c1.33301 3.33301 2.33301 6 3 8
c9.33301 26 18.666 46.167 27.999 60.5s22 21.5 38 21.5c8.66699 0 15.667 -1 21 -3s10.666 -5 15.999 -9c6 -4 10.667 -6 14 -6c4.66699 0 10.334 0.666992 17.001 2z" />
    <glyph glyph-name="X" unicode="X" horiz-adv-x="537" 
d="M175 0v79h-40l85 196l84 -196h-40v-79h257v79h-46l-118 271l119 254h29v79h-153v-79h42l-75 -170l-73 170h46v79h-255v-79h39l105 -239l-126 -286h-38v-79h158z" />
    <glyph glyph-name="Y" unicode="Y" horiz-adv-x="519" 
d="M169 -11c6.66699 3.33301 17.501 7.33301 32.501 12s25.833 7 32.5 7c10.667 0 28.667 -3.66699 54 -11c28.667 -8.66699 50.334 -13 65.001 -13c21.333 0 45.666 6 72.999 18l34 170l-44 13c-5.33301 -13.333 -10.833 -23.333 -16.5 -30s-12.834 -10 -21.501 -10
c-5.33301 0 -17.666 1.33301 -36.999 4c-18 2 -29.333 3 -34 3c-12.667 0 -23.334 -1.33301 -32.001 -4l204 456h32v79h-148v-79h35l-88 -200l-95 200h42v79h-248v-79h35l183 -384l-92 -198z" />
    <glyph glyph-name="Z" unicode="Z" horiz-adv-x="481" 
d="M360 0l-2.00293 -34h69l20 282h-65c-8 -31.333 -21.5 -53 -40.5 -65s-41.167 -18 -66.5 -18c-34 0 -59.333 3.33301 -76 10l203 337c14.667 23.333 28.334 41.333 41.001 54l-32 117h-260l2 32h-72l-27 -259h63c12 33.333 25.833 56.833 41.5 70.5
s36.834 20.5 63.501 20.5c16.667 0 36.334 -2.66699 59.001 -8c6 -1.33301 9.33301 -2 10 -2l-256 -424l33 -113h292z" />
    <glyph glyph-name="bracketleft" unicode="[" horiz-adv-x="333" 
d="M72 -137h201v77h-74v666h74v77h-201v-820z" />
    <glyph glyph-name="backslash" unicode="\" horiz-adv-x="278" 
d="M-51 699l298 -714h83l-298 714h-83z" />
    <glyph glyph-name="bracketright" unicode="]" horiz-adv-x="333" 
d="M60 683v-77h74v-666h-74v-77h201v820h-201z" />
    <glyph glyph-name="asciicircum" unicode="^" horiz-adv-x="600" 
d="M189 227l111 248l110 -248h117l-174 367h-106l-174 -367h116z" />
    <glyph glyph-name="underscore" unicode="_" 
d="M500 -125v50h-500v-50h500z" />
    <glyph glyph-name="grave" unicode="`" horiz-adv-x="278" 
d="M70 730l-40 -103l199 -52l20 58z" />
    <glyph glyph-name="a" unicode="a" horiz-adv-x="463" 
d="M278 0l163.003 -0.000976562v60h-36v320c0 36.667 -12.833 66.834 -38.5 90.501s-57.5 35.5 -95.5 35.5c-20.667 0 -39 -1.83301 -55 -5.5s-32.333 -10.167 -49 -19.5v28l-51 15l-49 -171l51 -17c15.333 20.667 30.666 37.167 45.999 49.5s32.666 18.5 51.999 18.5
c17.333 0 29 -5.16699 35 -15.5s9 -25.166 9 -44.499v-14c-0.666992 -7.33301 -1 -12 -1 -14c-10.667 1.33301 -20.5 2.16602 -29.5 2.49902s-18.833 0.5 -29.5 0.5c-50 0 -93.167 -16.167 -129.5 -48.5s-54.5 -76.833 -54.5 -133.5c0 -43.333 11.167 -79.5 33.5 -108.5
s53.166 -43.5 92.499 -43.5c24 0 46.833 5 68.5 15s38.167 24 49.5 42zM259.003 134.999c0 -28.667 -14.333 -42.999 -43 -42.999c-20 0 -34 7.66699 -42 23s-12 36.333 -12 63c0 25.333 6.83301 45.166 20.5 59.499s33.5 21.5 59.5 21.5c3.33301 0 9 -0.666992 17 -2v-122z
" />
    <glyph glyph-name="b" unicode="b" horiz-adv-x="481" 
d="M25 575l34.998 12.001v-486c0 -10 -1.33301 -25.667 -4 -47l-1 -9c16 -16 39 -30 69 -42s56.667 -18 80 -18c38.667 0 73.334 10.667 104.001 32s56 49.333 76 84s35 71.5 45 110.5s15 76.5 15 112.5c0 18 -2.16699 37.333 -6.5 58s-11 40.5 -20 59.5
s-20.833 34.5 -35.5 46.5s-32 18 -52 18c-22.667 0 -43.167 -5.33301 -61.5 -16s-39.166 -26.334 -62.499 -47.001v189l35 13v54l-216 -70v-54zM205.998 362.001c0 8 4.83301 14.1689 14.5 18.502s18.834 6.5 27.501 6.5c21.333 0 38 -13.833 50 -41.5
s18 -73.834 18 -138.501c0 -17.333 -0.5 -32.833 -1.5 -46.5s-3.33301 -26.334 -7 -38.001s-9.33398 -21 -17.001 -28s-18.167 -10.5 -31.5 -10.5c-21.333 0 -35 6 -41 18s-9.66699 31 -11 57l-1 10v193z" />
    <glyph glyph-name="c" unicode="c" horiz-adv-x="389" 
d="M362 405c-0.666992 6 -4.50293 14.668 -11.5029 26.001s-16.833 22.833 -29.5 34.5s-26.834 21.334 -42.501 29.001s-31.834 11.5 -48.501 11.5c-31.333 0 -60 -8.16699 -86 -24.5s-48.167 -38.5 -66.5 -66.5s-32.333 -59.5 -42 -94.5s-14.5 -71.167 -14.5 -108.5
c0 -28 3.33301 -55.5 10 -82.5s17.167 -51.333 31.5 -73s32.5 -39 54.5 -52s48 -19.5 78 -19.5c23.333 0 44.666 5.33301 63.999 16s36.166 24.834 50.499 42.501s26.333 37 36 58s17.5 42.833 23.5 65.5l-33 31c-0.666992 -0.666992 -2.66699 -3.33398 -6 -8.00098
c-15.333 -20 -29 -35.333 -41 -46s-26.333 -16 -43 -16c-19.333 0 -35.666 6.83301 -48.999 20.5s-23.666 31 -30.999 52s-12.666 42.667 -15.999 65s-5 43.166 -5 62.499c0 8.66699 0.333008 17.5 1 26.5s2.33398 17.667 5.00098 26s6.66699 15.166 12 20.499s12 8 20 8
c10 0 19.333 -5 28 -15s16.334 -22.167 23.001 -36.5s12.334 -28.5 17.001 -42.5s8.33398 -26.333 11.001 -37z" />
    <glyph glyph-name="d" unicode="d" 
d="M288 144c0 -22.667 -11.668 -33.999 -35.001 -33.999c-9.33301 0 -18.666 2.5 -27.999 7.5s-18 14.167 -26 27.5s-14.667 32.666 -20 57.999s-8 57 -8 95c0 49.333 5.16699 84.333 15.5 105s27.833 31 52.5 31c15.333 0 27.333 -6.33301 36 -19s13 -29 13 -49v-222z
M287.999 491.001l-5.00098 2c-13.333 4 -24.666 7.16699 -33.999 9.5s-20 3.5 -32 3.5c-34 0 -63.333 -8.33301 -88 -25s-44.667 -38.667 -60 -66s-26.5 -57.333 -33.5 -90s-10.5 -65.667 -10.5 -99c0 -30.667 2.33301 -60.167 7 -88.5s12.167 -54 22.5 -77
s24.5 -41.333 42.5 -55s39.667 -20.5 65 -20.5c26 0 49.167 6.16699 69.5 18.5s38.833 28.5 55.5 48.5l15 -52h168v60h-36v573l36 12v54l-218 -70v-54l36 12v-96z" />
    <glyph glyph-name="e" unicode="e" horiz-adv-x="407" 
d="M360 153c-10.667 -13.333 -26 -25.001 -46 -35.001s-39.333 -15 -58 -15c-21.333 0 -39.5 8.16699 -54.5 24.5s-25.167 37.5 -30.5 63.5l211 100c-0.666992 22 -5 45.5 -13 70.5s-19.667 48.5 -35 70.5s-33.5 39.833 -54.5 53.5s-44.167 20.5 -69.5 20.5
c-29.333 0 -55.833 -7.83301 -79.5 -23.5s-43.667 -36.667 -60 -63s-28.666 -56.166 -36.999 -89.499s-12.5 -67.333 -12.5 -102c0 -34 4.5 -66 13.5 -96s21.333 -56 37 -78s34 -39 55 -51s43.167 -18 66.5 -18c40 0 76.667 11.833 110 35.5s60.666 54.5 81.999 92.5z
M153 261.999c-5.33301 25.333 -7.99805 49.333 -7.99805 72c0 28 3.33301 51.667 10 71s18.667 29 36 29c10.667 0 19.667 -3.66699 27 -11s13.166 -16.666 17.499 -27.999s7.66602 -22.5 9.99902 -33.5s4.5 -23.5 6.5 -37.5c0.666992 -4.66699 1 -7.33398 1 -8.00098z" />
    <glyph glyph-name="f" unicode="f" horiz-adv-x="315" 
d="M81 402l0.00195312 -341.999h-36v-60h218v60h-36v342h36l23 75c-17.333 0 -32.333 3.5 -45 10.5s-22.834 16 -30.501 27s-13.167 22.833 -16.5 35.5s-5 24.667 -5 36c0 27.333 8.66699 41 26 41c13.333 0 22.666 -6.33301 27.999 -19s8.66602 -29 9.99902 -49l87 81
c-7.33301 16 -20.333 29.833 -39 41.5s-41.334 17.5 -68.001 17.5c-17.333 0 -35.166 -3.5 -53.499 -10.5s-35.166 -16.833 -50.499 -29.5s-27.5 -27.5 -36.5 -44.5s-13.5 -34.5 -13.5 -52.5c0 -26.667 4 -54.334 12 -83.001h-33l-22 -77h45z" />
    <glyph glyph-name="g" unicode="g" horiz-adv-x="463" 
d="M251 171c-16 0 -29.5 7.16699 -40.5 21.5s-19.5 32.333 -25.5 54s-10.333 43.667 -13 66s-4 42.5 -4 60.5c0 19.333 4.33301 35 13 47s21 18 37 18s29.5 -7.16699 40.5 -21.5s19.5 -32.333 25.5 -54s10.333 -43.667 13 -66s4 -42.5 4 -60.5
c0 -19.333 -4.33301 -35 -13 -47s-21 -18 -37 -18zM310 -83c0 -14.667 -4.50098 -26.498 -13.501 -35.498s-20.5 -13.5 -34.5 -13.5c-15.333 0 -26.666 5.66699 -33.999 17s-11 24.666 -11 39.999c0 10 2.16699 21.167 6.5 33.5s9.83301 22.166 16.5 29.499
c20 -1.33301 36.667 -9 50 -23s20 -30 20 -48zM424.999 600.002c-2.66699 0 -6.66895 0.332031 -12.002 0.999023h-10c-30 0 -51.167 -7.5 -63.5 -22.5s-24.166 -42.167 -35.499 -81.5c-2 0.666992 -6 1.33398 -12 2.00098c-22 4.66699 -38 7 -48 7
c-26.667 0 -52.334 -4.5 -77.001 -13.5s-46.667 -21.667 -66 -38s-34.666 -36 -45.999 -59s-17 -48.167 -17 -75.5c0 -49.333 11.833 -92 35.5 -128s58.5 -60.667 104.5 -74c-45.333 -29.333 -95.666 -53 -150.999 -71l30 -46c8.66699 0 21.334 0.666992 38.001 2s29 2 37 2
s20 -1 36 -3c14.667 -2 25.667 -3 33 -3v-2c-26 -10 -48.167 -23.833 -66.5 -41.5s-27.5 -38.167 -27.5 -61.5c0 -28.667 11.167 -49.334 33.5 -62.001s52.5 -19 90.5 -19c22 0 44 3 66 9s42.333 15.167 61 27.5s33.667 27.333 45 45s17 37.834 17 60.501
c0 21.333 -6.5 39.666 -19.5 54.999s-29.667 27.666 -50 36.999s-41 16.5 -62 21.5s-42.167 8.83301 -63.5 11.5v2c34 16.667 62 31.334 84 44.001s42.333 27.667 61 45s33.5 37.833 44.5 61.5s16.5 50.834 16.5 81.501c0 22.667 -2.5 42.667 -7.5 60s-11.5 32.333 -19.5 45
s-15.5 22.667 -22.5 30s-14.833 14.666 -23.5 21.999c-6 4.66699 -9 7.66699 -9 9c0 7.33301 3 13.833 9 19.5s12.333 8.5 19 8.5c7.33301 0 15.666 -2 24.999 -6c4 -1.33301 7.33301 -2.66602 10 -3.99902z" />
    <glyph glyph-name="h" unicode="h" horiz-adv-x="519" 
d="M65 60l-36.001 0.000976562v-60h218v60h-36v301c16 16 33.667 24 53 24c30 0 45 -16.333 45 -49v-276h-36v-60h218v60h-36v320c0 40 -9.33301 71 -28 93s-46.667 33 -84 33c-25.333 0 -47.666 -5.83301 -66.999 -17.5s-40.333 -27.834 -63 -48.501l-2 -1v190l36 12v58
l-218 -70v-58l36 11v-522z" />
    <glyph glyph-name="i" unicode="i" horiz-adv-x="278" 
d="M247 0v60h-35v333c0 41.333 1.33301 79 4 113l-184 -61v-58l34 11v-338h-34v-60h215zM224 617c0 14.667 -5.83203 27 -17.499 37s-24.834 15 -39.501 15c-26 0 -48.167 -9.5 -66.5 -28.5s-27.5 -41.5 -27.5 -67.5c0 -15.333 5.5 -28 16.5 -38s24.5 -15 40.5 -15
c26 0 48.167 9.66699 66.5 29s27.5 42 27.5 68z" />
    <glyph glyph-name="j" unicode="j" horiz-adv-x="278" 
d="M40 -168c34.667 6.66699 63.5 14.835 86.5 24.502s41.333 22.167 55 37.5s23.667 34.666 30 57.999s9.5 52 9.5 86v369c0.666992 22 2.33398 55 5.00098 99l-187 -61v-58l36 11v-430c0 -24.667 -3.83301 -42.334 -11.5 -53.001s-19.834 -19 -36.501 -25zM233 617.001
c0 14.667 -5.83203 27 -17.499 37s-24.834 15 -39.501 15c-26 0 -48.167 -9.5 -66.5 -28.5s-27.5 -41.5 -27.5 -67.5c0 -15.333 5.5 -28 16.5 -38s24.5 -15 40.5 -15c26 0 48.167 9.66699 66.5 29s27.5 42 27.5 68z" />
    <glyph glyph-name="k" unicode="k" 
d="M215 213v143.001c8.66699 7.33301 18.5 13.166 29.5 17.499s21.833 6.5 32.5 6.5c18.667 0 34 -7 46 -21s18 -33.333 18 -58c0 -20 -5.33301 -38.667 -16 -56l-23 35zM243 0.000976562v59.999h-28v117h2l102 -177h155v60h-36l-87 145c34 14 60.333 34.167 79 60.5
s28 57.5 28 93.5c0 42.667 -9.66699 77.834 -29 105.501s-48.666 41.5 -87.999 41.5c-20.667 0 -42.334 -7.5 -65.001 -22.5s-43 -32.5 -61 -52.5v197l40 13v58l-222 -70v-58l36 11v-522h-36v-60h210z" />
    <glyph glyph-name="l" unicode="l" horiz-adv-x="278" 
d="M247 0v60h-35v570l33 11v58l-212 -70v-58l33 11v-522h-34v-60h215z" />
    <glyph glyph-name="m" unicode="m" horiz-adv-x="759" 
d="M245 0l0.000976562 59.999h-36v299c5.33301 6.66699 12.833 12.667 22.5 18s19.5 8 29.5 8c14.667 0 26 -3.5 34 -10.5s12 -17.833 12 -32.5v-282h-36v-60h218v60h-36v299c5.33301 6.66699 12.833 12.667 22.5 18s19.5 8 29.5 8c14.667 0 26 -3.5 34 -10.5
s12 -17.833 12 -32.5v-282h-36v-60h218v60h-36v320c0 42 -8.83301 73.5 -26.5 94.5s-43.5 31.5 -77.5 31.5c-24 0 -49.667 -7.5 -77 -22.5s-50.666 -32.167 -69.999 -51.5c-7.33301 22 -20 39.833 -38 53.5s-38.667 20.5 -62 20.5c-22 0 -41.833 -4.66699 -59.5 -14
s-38.834 -23.666 -63.501 -42.999c-4.66699 -4 -9.33398 -7.66699 -14.001 -11v65l-182 -59v-56l36 11v-339h-36v-60h218z" />
    <glyph glyph-name="n" unicode="n" horiz-adv-x="519" 
d="M247 0l0.000976562 60h-36v301c16 16 33.667 24 53 24c30 0 45 -16.333 45 -49v-276h-36v-60h218v60h-36v320c0 40 -9.33301 71 -28 93s-46.667 33 -84 33c-26 0 -48.833 -6 -68.5 -18s-40.834 -28.667 -63.501 -50v68l-182 -62v-56l36 11v-339h-36v-60h218z" />
    <glyph glyph-name="o" unicode="o" 
d="M231 434c29.333 0 53.166 -22.5 71.499 -67.5s27.5 -110.5 27.5 -196.5c0 -40.667 -5.83301 -69.667 -17.5 -87s-26.167 -26 -43.5 -26c-29.333 0 -53.166 22.5 -71.499 67.5s-27.5 110.5 -27.5 196.5c0 40.667 5.83301 69.667 17.5 87s26.167 26 43.5 26zM250 506
c-36.667 0 -69.1699 -7.16797 -97.5029 -21.501s-52.166 -33.833 -71.499 -58.5s-33.666 -52.5 -42.999 -83.5s-14 -63.167 -14 -96.5s4.66699 -65.666 14 -96.999s23.5 -59.333 42.5 -84s42.833 -44.167 71.5 -58.5s61.334 -21.5 98.001 -21.5s69.334 7.16699 98.001 21.5
s52.5 34 71.5 59s33.167 53 42.5 84s14 63.167 14 96.5s-4.66699 65.5 -14 96.5s-23.5 58.833 -42.5 83.5s-42.833 44.167 -71.5 58.5s-61.334 21.5 -98.001 21.5z" />
    <glyph glyph-name="p" unicode="p" 
d="M213 389c7.33301 4.66699 16.333 7.00098 27 7.00098c24.667 0 45 -17.5 61 -52.5s24 -78.833 24 -131.5c0 -58.667 -5.66699 -99.167 -17 -121.5s-27 -33.5 -47 -33.5s-33 5.16699 -39 15.5s-9 31.166 -9 62.499v254zM213 1.00098
c16.667 -10.667 36.001 -16.001 58.001 -16.001c33.333 0 62.666 7.5 87.999 22.5s46.333 35.667 63 62s29 56.833 37 91.5s12 71.334 12 110.001c0 26.667 -3.16699 53.667 -9.5 81s-16 52.833 -29 76.5s-29 42.5 -48 56.5s-40.833 21 -65.5 21c-18 0 -35 -3.66699 -51 -11
s-34.333 -18 -55 -32l2 43l-184 -60v-53l36 9v-510h-36v-60h218v58h-36v111z" />
    <glyph glyph-name="q" unicode="q" 
d="M168 283c0 56 5.16699 95.166 15.5 117.499s27.833 33.5 52.5 33.5c16.667 0 29.667 -6.33301 39 -19s14 -29 14 -49v-232c0 -14 -2.5 -24 -7.5 -30s-14.833 -9 -29.5 -9c-15.333 0 -28.5 5.66699 -39.5 17s-19.667 26.333 -26 45s-11 38.834 -14 60.501
s-4.5 43.5 -4.5 65.5zM370 457.999l-1.99805 2.00098c-24.667 16 -45.5 27.667 -62.5 35s-38.5 11 -64.5 11c-34.667 0 -65.667 -8.16699 -93 -24.5s-50.333 -38.5 -69 -66.5s-32.834 -59.833 -42.501 -95.5s-14.5 -72.5 -14.5 -110.5c0 -29.333 3.16699 -57.333 9.5 -84
s16 -50.5 29 -71.5s29.667 -37.667 50 -50s43.833 -18.5 70.5 -18.5c20.667 0 41.167 4.66699 61.5 14s35.166 20.666 44.499 33.999h2v-141h-36v-60h218v60h-36v455c0 58.667 1.33301 111.667 4 159z" />
    <glyph glyph-name="r" unicode="r" horiz-adv-x="370" 
d="M375 491l-49.002 21l-7 -23c-11.333 11.333 -26 17 -44 17c-19.333 0 -33.166 -9 -41.499 -27s-16.166 -45 -23.499 -81c-0.666992 -4 -1.33398 -7.33301 -2.00098 -10h-2v118l-166 -62v-56l36 11v-339h-36v-60h238v60h-56v206c0 29.333 3.83301 48.833 11.5 58.5
s19.5 14.5 35.5 14.5c9.33301 0 19.333 -1.5 30 -4.5s20.334 -6.5 29.001 -10.5z" />
    <glyph glyph-name="s" unicode="s" horiz-adv-x="389" 
d="M23 43c20.667 -18.667 44.168 -32.998 70.501 -42.998s52.5 -15 78.5 -15c50 0 91.667 15.833 125 47.5s50 72.5 50 122.5c0 32 -10.5 59.667 -31.5 83s-51.167 48.666 -90.5 75.999c-26 18 -44.833 32.667 -56.5 44s-17.5 23 -17.5 35c0 27.333 12.667 41 38 41
c7.33301 0 16 -2.83301 26 -8.5s20.167 -12.667 30.5 -21s19.666 -16.833 27.999 -25.5s14.833 -16.334 19.5 -23.001l52 101c-23.333 15.333 -44.333 27.333 -63 36s-38.667 13 -60 13s-42 -3.66699 -62 -11s-37.833 -17.833 -53.5 -31.5s-28 -30 -37 -49
s-13.5 -39.167 -13.5 -60.5c0 -22.667 3.83301 -43 11.5 -61s17.5 -34 29.5 -48s24.5 -26 37.5 -36s29.5 -21.333 49.5 -34c23.333 -16 40.5 -29 51.5 -39s16.5 -21.333 16.5 -34c0 -10 -3.66699 -18.333 -11 -25s-16.333 -10 -27 -10c-12 0 -24.167 3.33301 -36.5 10
s-24 15 -35 25s-21 20.5 -30 31.5s-17.5 22.5 -25.5 34.5z" />
    <glyph glyph-name="t" unicode="t" horiz-adv-x="315" 
d="M66 110c0 -45.333 8.66699 -77.498 26 -96.498s42.666 -28.5 75.999 -28.5c24.667 0 48.667 7.16699 72 21.5s42 32.166 56 53.499l-19 42c-10.667 -8.66699 -22.334 -13 -35.001 -13c-11.333 0 -19.166 3.16699 -23.499 9.5s-6.5 18.166 -6.5 35.499v280h61l13 77h-74
v72c0 16.667 1 30 3 40l-46 16c-9.33301 -35.333 -26.166 -66 -50.499 -92s-53.833 -44 -88.5 -54v-59h36v-304z" />
    <glyph glyph-name="u" unicode="u" 
d="M306 0h175v60h-36v341c0 31.333 1.66699 66.333 5 105l-187 -62v-56l36 11v-242c0 -19.333 -3.5 -32.666 -10.5 -39.999s-19.833 -11 -38.5 -11s-31.5 3.66699 -38.5 11s-10.5 20.666 -10.5 39.999v244c0 31.333 1.66699 66.333 5 105l-187 -62v-56l36 11v-280
c0 -44 10.333 -77.333 31 -100s49.667 -34 87 -34c52 0 93 19.667 123 59z" />
    <glyph glyph-name="v" unicode="v" horiz-adv-x="444" 
d="M267 181h-2l-46 147c0 14 3.5 26.167 10.5 36.5s16.833 15.5 29.5 15.5c8 0 19 -3.33301 33 -10c13.333 -6 23.333 -9 30 -9c1.33301 0 4 0.666992 8 2zM417 491c-11.333 -6.66699 -21.999 -10 -31.999 -10c-8 0 -20.667 4.33301 -38 13c-18 8 -31 12 -39 12
c-26 0 -47.5 -13 -64.5 -39s-30.833 -59 -41.5 -99h-2l-27 88c-5.33301 17.333 -9 34 -11 50l-156 -112l21 -53l27 21l122 -362h101l130 397c9.33301 30 19.666 54.333 30.999 73z" />
    <glyph glyph-name="w" unicode="w" horiz-adv-x="648" 
d="M481 177h-2.00098l-43 143c6 40 18.333 60 37 60c6.66699 0 16.334 -2.66699 29.001 -8c12.667 -6 22.334 -9 29.001 -9c3.33301 0 5.66602 0.333008 6.99902 1zM616.999 491c-7.33301 -7.33301 -15.998 -11.001 -25.998 -11.001c-6 0 -18 3.66699 -36 11
c-12 4.66699 -22 8.33398 -30 11.001s-15.667 4 -23 4c-16 0 -32.167 -12.833 -48.5 -38.5s-28.166 -61.5 -35.499 -107.5h-2l-29 108c-2 7.33301 -4 15.333 -6 24c-1.33301 6 -2.33301 10.667 -3 14l-153 -103l19 -52l31 19l24 -62l-42 -133h-2l-93 293
c-2 7.33301 -4 15.333 -6 24c-1.33301 6 -2.33301 10.667 -3 14l-153 -108l19 -51l27 16l111 -324c5.33301 -17.333 8.66602 -30.333 9.99902 -39h102c1.33301 8.66699 4.66602 21.667 9.99902 39l52 174h2l61 -213h103c1.33301 8.66699 4.66602 21.667 9.99902 39l105 358
c5.33301 18 10.5 33.5 15.5 46.5s8.83301 21.167 11.5 24.5z" />
    <glyph glyph-name="x" unicode="x" horiz-adv-x="426" 
d="M18 491v-60h36l80 -175l-90 -196h-36v-60h138v60h-36l57 123l58 -123h-36v-60h224v60h-36l-97 209l85 162h36v60h-128v-60h26l-47 -94l-44 94h26v60h-216z" />
    <glyph glyph-name="y" unicode="y" horiz-adv-x="444" 
d="M25 345l28.0029 17l154 -361c0 -13.333 -4.5 -23.833 -13.5 -31.5s-20.167 -11.5 -33.5 -11.5c-22 0 -42 6 -60 18l-16 -136c19.333 -5.33301 40 -8 62 -8c27.333 0 50.666 13.167 69.999 39.5s36.666 62.5 51.999 108.5l139 417c9.33301 30 19.666 54.333 30.999 73
l-21 21c-11.333 -6.66699 -22 -10 -32 -10c-8 0 -20.667 4.33301 -38 13c-18 8 -31 12 -39 12c-26 0 -47.5 -13 -64.5 -39s-30.833 -59 -41.5 -99h-2l-27 88c-5.33301 17.333 -9 34 -11 50l-153 -110zM219.003 333c4 13.333 9.5 24.5 16.5 33.5s15.833 13.5 26.5 13.5
c8.66699 0 20 -2.33301 34 -7s24.333 -7 31 -7c2 0 5 0.666992 9 2h2l-61 -173z" />
    <glyph glyph-name="z" unicode="z" horiz-adv-x="389" 
d="M131 491l3.00098 25h-46l-34 -187l40 -10c14.667 24.667 28.5 42.667 41.5 54s31.167 17 54.5 17c8.66699 0 18 -1 28 -3l-183 -304l28 -83h212l-3 -27h51l27 226l-37 6c-14.667 -32 -30.5 -55.5 -47.5 -70.5s-43.167 -22.5 -78.5 -22.5
c-16.667 0 -29.667 0.333008 -39 1l176 292c4.66699 8 10 14.667 16 20c1.33301 0.666992 2.66602 1.66699 3.99902 3l-23 63h-190z" />
    <glyph glyph-name="braceleft" unicode="{" horiz-adv-x="333" 
d="M101 -2c0 -30 4.16699 -54.167 12.5 -72.5s20.666 -32 36.999 -41s36.333 -14.833 60 -17.5s53.834 -4 90.501 -4v36c-28.667 8 -48 22 -58 42s-15 45.667 -15 77v140c0 34.667 -5.16699 61.667 -15.5 81s-32.166 33.333 -65.499 42v2c33.333 8 55.166 21.667 65.499 41
s15.5 46.666 15.5 81.999v138c0 31.333 5 57 15 77s29.333 34 58 42v36c-36.667 0 -66.834 -1.33301 -90.501 -4s-43.667 -8.66699 -60 -18s-28.666 -23 -36.999 -41s-12.5 -42 -12.5 -72v-172c0 -31.333 -5 -55.333 -15 -72s-30.333 -29.334 -61 -38.001
c30.667 -9.33301 51 -22.166 61 -38.499s15 -40.166 15 -71.499v-174z" />
    <glyph glyph-name="bar" unicode="|" horiz-adv-x="222" 
d="M53 -250h116v1000h-116v-1000z" />
    <glyph glyph-name="braceright" unicode="}" horiz-adv-x="333" 
d="M105 18c0 -31.333 -4.83301 -57 -14.5 -77s-29.167 -34 -58.5 -42v-36c36.667 0 66.834 1.33301 90.501 4s43.667 8.66699 60 18s28.666 23 36.999 41s12.5 42 12.5 72v174c0 31.333 5 55.166 15 71.499s30.333 29.166 61 38.499c-30.667 8.66699 -51 21.334 -61 38.001
s-15 40.667 -15 72v172c0 30 -4.16699 54.167 -12.5 72.5s-20.666 32 -36.999 41s-36.333 14.833 -60 17.5s-53.834 4 -90.501 4v-36c29.333 -8 48.833 -22 58.5 -42s14.5 -45.667 14.5 -77v-138c0 -35.333 5.16699 -62.666 15.5 -81.999s32.166 -33 65.499 -41v-2
c-33.333 -8.66699 -55.166 -22.667 -65.499 -42s-15.5 -46.333 -15.5 -81v-140z" />
    <glyph glyph-name="asciitilde" unicode="~" horiz-adv-x="600" 
d="M495 339l-1 -1c-14 -22 -27.5 -39.333 -40.5 -52s-28.5 -19 -46.5 -19c-10.667 0 -22.667 2.33301 -36 7s-30.666 12 -51.999 22c-2 1.33301 -5.33301 3 -10 5c-23.333 10.667 -44 19 -62 25s-35.667 9 -53 9c-28.667 0 -53 -7.5 -73 -22.5s-37.333 -36.167 -52 -63.5
l36 -96c9.33301 21.333 20.666 38.666 33.999 51.999s30 20 50 20s38.333 -2.83301 55 -8.5s35.667 -14.167 57 -25.5l3 -1c21.333 -11.333 39.5 -19.666 54.5 -24.999s30.833 -8 47.5 -8c27.333 0 50 7.33301 68 22s37 36 57 64z" />
    <glyph glyph-name="exclamdown" unicode="&#xa1;" horiz-adv-x="278" 
d="M197 441c0 18.667 -5.33301 36.5 -16 53.5s-25 25.5 -43 25.5s-32.333 -8.5 -43 -25.5s-16 -34.833 -16 -53.5s5.33301 -36.5 16 -53.5s25 -25.5 43 -25.5s32.333 8.5 43 25.5s16 34.833 16 53.5zM110 306c0 -48 -3.16504 -93.667 -9.49805 -137
s-14.833 -92.333 -25.5 -147c-11.333 -56.667 -17 -93 -17 -109c0 -27.333 7.16699 -50.833 21.5 -70.5s34.166 -29.5 59.499 -29.5s45.166 9.83301 59.499 29.5s21.5 43.167 21.5 70.5c0 16 -5.66699 52.333 -17 109c-10.667 54.667 -19.167 103.667 -25.5 147
s-9.5 89 -9.5 137h-58z" />
    <glyph glyph-name="cent" unicode="&#xa2;" horiz-adv-x="407" 
d="M153 514c-38.667 -20.667 -69.1631 -52.333 -91.4961 -95s-33.5 -90 -33.5 -142c0 -46.667 10.833 -88.5 32.5 -125.5s52.5 -60.167 92.5 -69.5v-97h87v100c33.333 12 60.666 31.167 81.999 57.5s36 56.833 44 91.5l-29 26c-11.333 -16 -23.5 -29 -36.5 -39
s-27.833 -15 -44.5 -15c-18 0 -33.833 5.66699 -47.5 17s-24.834 25.833 -33.501 43.5s-15.334 36.167 -20.001 55.5s-7 37 -7 53c0 20.667 3.16699 37.834 9.5 51.501s17.5 20.5 33.5 20.5c8.66699 0 17.167 -3.5 25.5 -10.5s15.833 -16.167 22.5 -27.5
s12.167 -23.333 16.5 -36s7.16602 -24.334 8.49902 -35.001l94 105c-9.33301 24 -24.833 44.5 -46.5 61.5s-45.5 26.167 -71.5 27.5v77h-87v-95z" />
    <glyph glyph-name="sterling" unicode="&#xa3;" horiz-adv-x="407" 
d="M375 183l-50.998 -0.00488281c-2 -18.667 -9 -31.5 -21 -38.5s-28.667 -10.5 -50 -10.5h-71c16.667 19.333 29.5 39 38.5 59s14.833 43 17.5 69h77v74h-77c0 9.33301 -3.16699 20.833 -9.5 34.5s-15.5 31.167 -27.5 52.5c-10.667 18.667 -18.667 33.334 -24 44.001
s-8 19.667 -8 27c0 11.333 2.83301 20.5 8.5 27.5s14.167 10.5 25.5 10.5c9.33301 0 17.666 -4.5 24.999 -13.5s13.5 -20.167 18.5 -33.5s9 -27 12 -41s5.5 -27.333 7.5 -40l111 110c-12 29.333 -30.5 52.5 -55.5 69.5s-53.167 25.5 -84.5 25.5
c-22.667 0 -44.334 -4.16699 -65.001 -12.5s-38.834 -20.166 -54.501 -35.499s-28 -33.166 -37 -53.499s-13.5 -42.166 -13.5 -65.499c0 -39.333 7 -74.666 21 -105.999h-30v-74h53v-9c0.666992 -4 1 -7 1 -9c0 -27.333 -5.16699 -52.333 -15.5 -75
s-26.166 -41.667 -47.499 -57l25 -112h234l-1 -20h58z" />
    <glyph glyph-name="currency" unicode="&#xa4;" horiz-adv-x="407" 
d="M340 333c20 23.333 30 55.666 30 96.999c0 18.667 -2.5 36.5 -7.5 53.5s-12.5 30.833 -22.5 41.5l40 39l-42 42l-38 -36c-28 18.667 -60.667 28 -98 28s-70 -9.33301 -98 -28l-38 36l-42 -42l40 -39c-10 -10.667 -17.5 -24.5 -22.5 -41.5s-7.5 -34.833 -7.5 -53.5
c0 -41.333 10 -73.666 30 -96.999l-40 -38l42 -42l38 40c11.333 -10.667 26 -18.5 44 -23.5s36 -7.5 54 -7.5s36 2.5 54 7.5s32.667 12.833 44 23.5l38 -40l42 42zM296 430c0 -26.667 -9 -49 -27 -67s-40.333 -27 -67 -27s-49 9 -67 27s-27 40.333 -27 67
c0 25.333 9.16699 47.333 27.5 66s40.5 28 66.5 28s48.167 -9.33301 66.5 -28s27.5 -40.667 27.5 -66z" />
    <glyph glyph-name="yen" unicode="&#xa5;" horiz-adv-x="407" 
d="M421 534v60h-128v-60h29l-75 -179l-81 179h35v60h-215v-60h31l74 -163h-67v-60h95l21 -47h-116v-60h119v-144h-30v-60h194v60h-30v144h106v60h-103l20 47h83v60h-59l69 163h28z" />
    <glyph glyph-name="brokenbar" unicode="&#xa6;" horiz-adv-x="222" 
d="M53 -175h116v400h-116v-400zM53 325h116v350h-116v-350z" />
    <glyph glyph-name="section" unicode="&#xa7;" 
d="M132 302c0 12 4.33008 23.6689 12.9971 35.002s18.667 21.666 30 30.999c16.667 -6 43.334 -13.667 80.001 -23c39.333 -9.33301 68 -18.166 86 -26.499s27 -20.5 27 -36.5c0 -20 -4.66699 -36 -14 -48s-19.666 -19.667 -30.999 -23
c-12.667 4.66699 -35.334 10.334 -68.001 17.001c-19.333 4 -35.666 7.66699 -48.999 11s-25.666 7.66602 -36.999 12.999s-20.333 12.166 -27 20.499s-10 18.166 -10 29.499zM402.997 699.002l-13.002 -29.999l-8 3c-23.333 8 -44.833 14.5 -64.5 19.5
s-40.167 7.5 -61.5 7.5c-33.333 0 -62.833 -5.66699 -88.5 -17s-47 -26.166 -64 -44.499s-29.833 -38.333 -38.5 -60s-13 -42.834 -13 -63.501c0 -32 5.33301 -58.167 16 -78.5s27.334 -36.166 50.001 -47.499c-26.667 -21.333 -48.5 -45.833 -65.5 -73.5
s-25.5 -56.834 -25.5 -87.501c0 -28 6.16699 -51.5 18.5 -70.5s28.333 -34.333 48 -46s39.834 -20.5 60.501 -26.5s47.334 -12.667 80.001 -20c40 -9.33301 69 -17.833 87 -25.5s27 -19.5 27 -35.5c0 -14.667 -5.16699 -25.5 -15.5 -32.5s-23.5 -10.5 -39.5 -10.5
c-15.333 0 -31.666 3 -48.999 9s-34.833 14.167 -52.5 24.5s-34 21 -49 32s-28.5 21.833 -40.5 32.5l-54 -165l57 -17l12 43c23.333 -12.667 45.166 -21.834 65.499 -27.501s42.166 -8.5 65.499 -8.5c28 0 54.333 4.33301 79 13s46.5 21.334 65.5 38.001
s33.833 36.834 44.5 60.501s16 49.5 16 77.5c0 26.667 -6.16699 49.5 -18.5 68.5s-30.833 35.5 -55.5 49.5c30 19.333 53.167 41.666 69.5 66.999s24.5 55 24.5 89c0 27.333 -5.66699 50.5 -17 69.5s-26.333 34.333 -45 46s-37.834 20.667 -57.501 27
s-45.167 13.166 -76.5 20.499c-41.333 10 -71.666 19.667 -90.999 29s-29 23.666 -29 42.999c0 14 5.33301 24.333 16 31s23.667 10 39 10c33.333 0 65.333 -9.16699 96 -27.5s62.667 -43.166 96 -74.499l57 154z" />
    <glyph glyph-name="dieresis" unicode="&#xa8;" horiz-adv-x="278" 
d="M154 633c0 -16.667 4.66699 -32 14 -46s21.666 -21 36.999 -21c16 0 28.5 7 37.5 21s13.5 29.333 13.5 46s-4.5 32 -13.5 46s-21.5 21 -37.5 21c-15.333 0 -27.666 -7 -36.999 -21s-14 -29.333 -14 -46zM23 633c0 -16.667 4.66699 -32 14 -46s21.666 -21 36.999 -21
c16 0 28.5 7 37.5 21s13.5 29.333 13.5 46s-4.5 32 -13.5 46s-21.5 21 -37.5 21c-15.333 0 -27.666 -7 -36.999 -21s-14 -29.333 -14 -46z" />
    <glyph glyph-name="copyright" unicode="&#xa9;" horiz-adv-x="800" 
d="M51 342c0 -50.667 8.5 -97.834 25.5 -141.501s41.167 -81.834 72.5 -114.501s68.5 -57.834 111.5 -75.501s89.5 -26.5 139.5 -26.5s96.5 8.83301 139.5 26.5s80.167 42.834 111.5 75.501s55.5 70.834 72.5 114.501s25.5 90.834 25.5 141.501c0 50 -8.5 96.667 -25.5 140
s-41.167 81.333 -72.5 114s-68.5 58 -111.5 76s-89.5 27 -139.5 27s-96.5 -9 -139.5 -27s-80.167 -43.333 -111.5 -76s-55.5 -70.667 -72.5 -114s-25.5 -90 -25.5 -140zM142 342c0 38.667 5.83496 75.5 17.502 110.5s28.667 66.333 51 94s49.666 49.334 81.999 65.001
s68.166 23.5 107.499 23.5s75.166 -7.83301 107.499 -23.5s59.666 -37.334 81.999 -65.001s39.333 -59 51 -94s17.5 -71.833 17.5 -110.5c0 -39.333 -5.83301 -76.666 -17.5 -111.999s-28.667 -66.666 -51 -93.999s-49.5 -48.833 -81.5 -64.5s-68 -23.5 -108 -23.5
c-39.333 0 -75.166 7.83301 -107.499 23.5s-59.666 37.167 -81.999 64.5s-39.333 58.666 -51 93.999s-17.5 72.666 -17.5 111.999zM546.002 267c-12.667 -26 -29.167 -48.165 -49.5 -66.498s-43.166 -27.5 -68.499 -27.5c-21.333 0 -38.5 6 -51.5 18s-22.5 27.5 -28.5 46.5
s-10 38.167 -12 57.5s-3 40 -3 62c0 17.333 1.33301 35.333 4 54s7.5 36.667 14.5 54s17 31.666 30 42.999s29.5 17 49.5 17c24 0 44 -8 60 -24s28.667 -36.667 38 -62h24v81c-12 10 -30.333 17.667 -55 23s-49.334 8 -74.001 8c-66 0 -119.833 -17 -161.5 -51
s-62.5 -83.333 -62.5 -148c0 -68 19.667 -119.167 59 -153.5s89.333 -51.5 150 -51.5c25.333 0 53.333 3.66699 84 11s50.667 15.666 60 24.999l16 85z" />
    <glyph glyph-name="ordfeminine" unicode="&#xaa;" horiz-adv-x="278" 
d="M170 395l106.001 -0.000976562v36h-23v192c0 22 -8.5 40.167 -25.5 54.5s-37.833 21.5 -62.5 21.5c-13.333 0 -25.166 -1.16699 -35.499 -3.5s-20.833 -6.16602 -31.5 -11.499v16l-34 9l-31 -102l33 -10c9.33301 11.333 19 20.5 29 27.5s21.333 10.5 34 10.5
c11.333 0 19 -2.66699 23 -8s6 -13.333 6 -24v-8c-0.666992 -4 -1 -7.33301 -1 -10c-8.66699 0.666992 -21.334 1 -38.001 1c-32.667 0 -60.834 -9.66699 -84.501 -29s-35.5 -46 -35.5 -80c0 -26 7.33301 -47.667 22 -65s34.667 -26 60 -26c16 0 30.833 2.83301 44.5 8.5
s24.5 14.167 32.5 25.5zM157.001 475.999c0 -17.333 -9.33398 -26 -28.001 -26c-12.667 0 -21.5 4.5 -26.5 13.5s-7.5 21.833 -7.5 38.5c0 32 17 48 51 48c4.66699 0 8.33398 -0.333008 11.001 -1v-73z" />
    <glyph glyph-name="guillemotleft" unicode="&#xab;" horiz-adv-x="426" 
d="M295 49h65l-36 198l36 197h-65l-79 -197zM145 49h65l-36 198l36 197h-65l-79 -197z" />
    <glyph glyph-name="logicalnot" unicode="&#xac;" horiz-adv-x="600" 
d="M428 105h116v303h-488v-116h372v-187z" />
    <glyph glyph-name="minus" unicode="&#xad;" horiz-adv-x="600" 
d="M56 188h488v116h-488v-116z" />
    <glyph glyph-name="minus" unicode="&#x2212;" horiz-adv-x="600" 
d="M56 188h488v116h-488v-116z" />
    <glyph glyph-name="registered" unicode="&#xae;" horiz-adv-x="800" 
d="M51 342c0 -50.667 8.5 -97.834 25.5 -141.501s41.167 -81.834 72.5 -114.501s68.5 -57.834 111.5 -75.501s89.5 -26.5 139.5 -26.5s96.5 8.83301 139.5 26.5s80.167 42.834 111.5 75.501s55.5 70.834 72.5 114.501s25.5 90.834 25.5 141.501c0 50 -8.5 96.667 -25.5 140
s-41.167 81.333 -72.5 114s-68.5 58 -111.5 76s-89.5 27 -139.5 27s-96.5 -9 -139.5 -27s-80.167 -43.333 -111.5 -76s-55.5 -70.667 -72.5 -114s-25.5 -90 -25.5 -140zM142 342c0 38.667 5.83496 75.5 17.502 110.5s28.667 66.333 51 94s49.666 49.334 81.999 65.001
s68.166 23.5 107.499 23.5s75.166 -7.83301 107.499 -23.5s59.666 -37.334 81.999 -65.001s39.333 -59 51 -94s17.5 -71.833 17.5 -110.5c0 -39.333 -5.83301 -76.666 -17.5 -111.999s-28.667 -66.666 -51 -93.999s-49.5 -48.833 -81.5 -64.5s-68 -23.5 -108 -23.5
c-39.333 0 -75.166 7.83301 -107.499 23.5s-59.666 37.167 -81.999 64.5s-39.333 58.666 -51 93.999s-17.5 72.666 -17.5 111.999zM232.002 515c18 -0.666992 29.334 -3.16699 34.001 -7.5s7 -14.5 7 -30.5v-256c0 -15.333 -2.33301 -25 -7 -29s-16 -6.66699 -34 -8v-26h181
v26c-18.667 1.33301 -30.334 4 -35.001 8s-7 13.667 -7 29v104h20c8 -12.667 20 -37 36 -73c14 -32 25.667 -55.667 35 -71s18.333 -23 27 -23h99v15c-19.333 26 -47 66 -83 120l-31 46c22 6 40.167 18.333 54.5 37s21.5 39.667 21.5 63c0 32.667 -10 57.5 -30 74.5
s-46.667 25.5 -80 25.5h-208v-24zM371.003 513l28 -0.000976562c10 0 18.167 -2.5 24.5 -7.5s10.833 -11.333 13.5 -19s4.33398 -15.5 5.00098 -23.5s1 -17.333 1 -28s-0.5 -20.5 -1.5 -29.5s-3.16699 -17.667 -6.5 -26s-8.33301 -15.166 -15 -20.499s-15.334 -8 -26.001 -8
h-23v162z" />
    <glyph glyph-name="macron" unicode="&#xaf;" horiz-adv-x="278" 
d="M246 554v84h-213v-84h213z" />
    <glyph glyph-name="degree" unicode="&#xb0;" horiz-adv-x="400" 
d="M200 554c24.667 0 45.5 -8.5 62.5 -25.5s25.5 -37.833 25.5 -62.5s-8.5 -45.5 -25.5 -62.5s-37.833 -25.5 -62.5 -25.5s-45.5 8.5 -62.5 25.5s-25.5 37.833 -25.5 62.5s8.5 45.5 25.5 62.5s37.833 25.5 62.5 25.5zM200 609c-40 0 -73.833 -13.833 -101.5 -41.5
s-41.5 -61.5 -41.5 -101.5s13.833 -73.833 41.5 -101.5s61.5 -41.5 101.5 -41.5s73.833 13.833 101.5 41.5s41.5 61.5 41.5 101.5s-13.833 73.833 -41.5 101.5s-61.5 41.5 -101.5 41.5z" />
    <glyph glyph-name="plusminus" unicode="&#xb1;" horiz-adv-x="600" 
d="M242 381h-186v-116h186v-110h116v110h186v116h-186v110h-116v-110zM56 0h488v116h-488v-116z" />
    <glyph glyph-name="twosuperior" unicode="&#xb2;" horiz-adv-x="264" 
d="M200 244l0.000976562 -14.0029h36l7 119h-31c-2.66699 -10 -7 -17.167 -13 -21.5s-16 -6.5 -30 -6.5h-36c35.333 34 62.833 65.833 82.5 95.5s29.5 61.5 29.5 95.5c0 29.333 -9.33301 52.833 -28 70.5s-45.334 26.5 -80.001 26.5s-63.5 -11.5 -86.5 -34.5
s-34.5 -51.5 -34.5 -85.5c0 -24.667 5.5 -45.167 16.5 -61.5s26.167 -29.166 45.5 -38.499l48 90c-28.667 12.667 -43 30 -43 52c0 22.667 9.33301 34 28 34c13.333 0 23.5 -7.66699 30.5 -23s10.5 -31.333 10.5 -48c0 -37.333 -9 -69.166 -27 -95.499
s-46.333 -58.166 -85 -95.499l-7 -6l6 -53h161z" />
    <glyph glyph-name="threesuperior" unicode="&#xb3;" horiz-adv-x="264" 
d="M97 600l2 9.99902l-37 11l-37 -114l28 -11c12 18 28.667 27 50 27h24l-69 -92l17 -25h13c26.667 0 47.5 -6.33301 62.5 -19s22.5 -31 22.5 -55c0 -11.333 -2.5 -20.5 -7.5 -27.5s-12.5 -10.5 -22.5 -10.5c-13.333 0 -26 6.5 -38 19.5s-21.667 28.5 -29 46.5l-66 -79
c9.33301 -12 23.166 -22.667 41.499 -32s37.166 -14 56.499 -14c38.667 0 70.334 14.833 95.001 44.5s37 63.834 37 102.501c0 23.333 -6.66699 44.166 -20 62.499s-31.333 31.5 -54 39.5l3 4l33 41c10.667 12.667 19.334 21.334 26.001 26.001l-15 45h-116z" />
    <glyph glyph-name="acute" unicode="&#xb4;" horiz-adv-x="278" 
d="M30 633l20 -58l199 52l-40 103z" />
    <glyph glyph-name="mu" unicode="&#xb5;" 
d="M201 401c0 31.333 1.66699 66.332 5 104.999l-187 -62v-56l36 11v-507h-36v-60h182v156c38 4.66699 69.667 23.334 95 56.001l10 -44h175v60h-36v341c0 31.333 1.66699 66.333 5 105l-187 -62v-56l36 11v-242c0 -19.333 -3.5 -32.666 -10.5 -39.999
s-19.833 -11 -38.5 -11s-31.5 3.66699 -38.5 11s-10.5 20.666 -10.5 39.999v244z" />
    <glyph glyph-name="paragraph" unicode="&#xb6;" horiz-adv-x="620" 
d="M502 -117v710c0 23.333 4.33301 38.833 13 46.5s28 12.5 58 14.5v29h-316c-72.667 0 -125.667 -15 -159 -45s-50 -80 -50 -150c0 -28.667 3 -56 9 -82s15.333 -49.167 28 -69.5s29 -36.5 49 -48.5s43 -18 69 -18v-387h120v768h59v-768h120z" />
    <glyph glyph-name="periodcentered" unicode="&#xb7;" horiz-adv-x="203" 
d="M102 313c-18.667 0 -34.5 -6.5 -47.5 -19.5s-19.5 -28.833 -19.5 -47.5s6.5 -34.5 19.5 -47.5s28.833 -19.5 47.5 -19.5s34.5 6.5 47.5 19.5s19.5 28.833 19.5 47.5s-6.5 34.5 -19.5 47.5s-28.833 19.5 -47.5 19.5z" />
    <glyph glyph-name="periodcentered" unicode="&#x2219;" horiz-adv-x="203" 
d="M102 313c-18.667 0 -34.5 -6.5 -47.5 -19.5s-19.5 -28.833 -19.5 -47.5s6.5 -34.5 19.5 -47.5s28.833 -19.5 47.5 -19.5s34.5 6.5 47.5 19.5s19.5 28.833 19.5 47.5s-6.5 34.5 -19.5 47.5s-28.833 19.5 -47.5 19.5z" />
    <glyph glyph-name="cedilla" unicode="&#xb8;" horiz-adv-x="278" 
d="M118 10l-29 -121.998c13.333 5.33301 26.666 8 39.999 8c8 0 15.833 -3.16699 23.5 -9.5s11.5 -13.833 11.5 -22.5c0 -17.333 -12.667 -26 -38 -26c-8 0 -19.167 2.66699 -33.5 8s-26.5 12 -36.5 20l-15 -54c10.667 -8.66699 24.334 -15.834 41.001 -21.501
s34.334 -8.5 53.001 -8.5c30.667 0 55.5 8.66699 74.5 26s28.5 38.666 28.5 63.999c0 18 -7.16699 35 -21.5 51s-30.5 24 -48.5 24c-0.666992 0 -4.33398 -0.333008 -11.001 -1h-11l14 64h-42z" />
    <glyph glyph-name="onesuperior" unicode="&#xb9;" horiz-adv-x="264" 
d="M179 600h-33c-10.667 -14 -23 -26.667 -37 -38s-28.667 -20.333 -44 -27v-38c12 3.33301 21 7.33301 27 12v-229h-19v-36h127v36h-21v320z" />
    <glyph glyph-name="ordmasculine" unicode="&#xba;" horiz-adv-x="300" 
d="M137 655c19.333 0 34.999 -13.5 46.999 -40.5s18 -66.167 18 -117.5c0 -24 -3.83301 -41.167 -11.5 -51.5s-17.167 -15.5 -28.5 -15.5c-19.333 0 -34.666 13.333 -45.999 40s-17 66 -17 118c0 24 3.66699 41.167 11 51.5s16.333 15.5 27 15.5zM149.999 699
c-46.667 0 -82.834 -15.332 -108.501 -45.999s-38.5 -67.334 -38.5 -110.001s12.833 -79.5 38.5 -110.5s61.834 -46.5 108.501 -46.5s83 15.5 109 46.5s39 67.833 39 110.5c0 42 -13.167 78.5 -39.5 109.5s-62.5 46.5 -108.5 46.5z" />
    <glyph glyph-name="guillemotright" unicode="&#xbb;" horiz-adv-x="426" 
d="M216 444l36 -197l-36 -198h65l79 198l-79 197h-65zM66 444l36 -197l-36 -198h65l79 198l-79 197h-65z" />
    <glyph glyph-name="onequarter" unicode="&#xbc;" horiz-adv-x="610" 
d="M199 -15l342 624h-70l-342 -624h70zM169 600h-33c-10.667 -14 -23 -26.667 -37 -38s-28.667 -20.333 -44 -27v-38c12 3.33301 21 7.33301 27 12v-229h-19v-36h127v36h-21v320zM579 0v36h-22v46h26l9 47h-35v170c0 18 1.33301 37 4 57h-67l-129 -227v-47h105v-46h-22v-36
h131zM468 244h2v-115h-66z" />
    <glyph glyph-name="onehalf" unicode="&#xbd;" horiz-adv-x="610" 
d="M169 600h-33c-10.667 -14 -23 -26.667 -37 -38s-28.667 -20.333 -44 -27v-38c12 3.33301 21 7.33301 27 12v-229h-19v-36h127v36h-21v320zM558 0l0.000976562 -14.0029h36l7 119h-31c-2.66699 -10 -7 -17.167 -13 -21.5s-16 -6.5 -30 -6.5h-36
c35.333 34 62.833 65.833 82.5 95.5s29.5 61.5 29.5 95.5c0 29.333 -9.33301 52.833 -28 70.5s-45.334 26.5 -80.001 26.5s-63.5 -11.5 -86.5 -34.5s-34.5 -51.5 -34.5 -85.5c0 -24.667 5.5 -45.167 16.5 -61.5s26.167 -29.166 45.5 -38.499l48 90
c-28.667 12.667 -43 30 -43 52c0 22.667 9.33301 34 28 34c13.333 0 23.5 -7.66699 30.5 -23s10.5 -31.333 10.5 -48c0 -37.333 -9 -69.166 -27 -95.499s-46.333 -58.166 -85 -95.499l-7 -6l6 -53h161zM179.001 -15.0029l342 624h-70l-342 -624h70z" />
    <glyph glyph-name="threequarters" unicode="&#xbe;" horiz-adv-x="610" 
d="M94 600l2 9.99902l-37 11l-37 -114l28 -11c12 18 28.667 27 50 27h24l-69 -92l17 -25h13c26.667 0 47.5 -6.33301 62.5 -19s22.5 -31 22.5 -55c0 -11.333 -2.5 -20.5 -7.5 -27.5s-12.5 -10.5 -22.5 -10.5c-13.333 0 -26 6.5 -38 19.5s-21.667 28.5 -29 46.5l-66 -79
c9.33301 -12 23.166 -22.667 41.499 -32s37.166 -14 56.499 -14c38.667 0 70.334 14.833 95.001 44.5s37 63.834 37 102.501c0 23.333 -6.66699 44.166 -20 62.499s-31.333 31.5 -54 39.5l3 4l33 41c10.667 12.667 19.334 21.334 26.001 26.001l-15 45h-116zM199 -15.001
l342 624h-70l-342 -624h70zM579 -0.000976562v36h-22v46h26l9 47h-35v170c0 18 1.33301 37 4 57h-67l-129 -227v-47h105v-46h-22v-36h131zM468 243.999h2v-115h-66z" />
    <glyph glyph-name="questiondown" unicode="&#xbf;" horiz-adv-x="389" 
d="M175 306c0 -34 -6.00195 -61.8311 -18.002 -83.498s-30 -45.834 -54 -72.501c-25.333 -28 -44.333 -53.833 -57 -77.5s-19 -54.167 -19 -91.5c0 -21.333 3.5 -42.166 10.5 -62.499s17.333 -38.5 31 -54.5s29.834 -28.5 48.501 -37.5s39 -13.5 61 -13.5
c24.667 0 48.167 4.66699 70.5 14s41.833 22.666 58.5 39.999s29.667 37.166 39 59.499s14 45.833 14 70.5c0 21.333 -2 43.833 -6 67.5s-8.66699 41.167 -14 52.5l-123 -64c8 -22 14 -41.167 18 -57.5s6 -32.833 6 -49.5s-3 -29.334 -9 -38.001s-13.667 -13 -23 -13
c-13.333 0 -23.666 7 -30.999 21s-11 31.667 -11 53c0 27.333 3.33301 50 10 68s16.667 38.667 30 62c18 30.667 31.667 60.334 41 89.001s14 68 14 118h-87zM273.998 441.002c0 18.667 -5.33301 36.5 -16 53.5s-25 25.5 -43 25.5s-32.333 -8.5 -43 -25.5
s-16 -34.833 -16 -53.5s5.33301 -36.5 16 -53.5s25 -25.5 43 -25.5s32.333 8.5 43 25.5s16 34.833 16 53.5z" />
    <glyph glyph-name="Agrave" unicode="&#xc0;" horiz-adv-x="556" 
d="M209 898l-40 -103l199 -52l20 58zM166 0v79h-32l18 85h175l22 -85h-44v-79h236v79h-30l-167 604h-133l-161 -604h-34v-79h150zM300 252h-127l61 241h2z" />
    <glyph glyph-name="Aacute" unicode="&#xc1;" horiz-adv-x="556" 
d="M169 801l20 -58l199 52l-40 103zM166 0v79h-32l18 85h175l22 -85h-44v-79h236v79h-30l-167 604h-133l-161 -604h-34v-79h150zM300 252h-127l61 241h2z" />
    <glyph glyph-name="Acircumflex" unicode="&#xc2;" horiz-adv-x="556" 
d="M146 794l11 -67l121 46l120 -46l12 67l-132 81zM166 0v79h-32l18 85h175l22 -85h-44v-79h236v79h-30l-167 604h-133l-161 -604h-34v-79h150zM300 252h-127l61 241h2z" />
    <glyph glyph-name="Atilde" unicode="&#xc3;" horiz-adv-x="556" 
d="M370 864c-4 -10.667 -9.16602 -19.834 -15.499 -27.501s-13.833 -11.5 -22.5 -11.5c-9.33301 0 -22.666 6 -39.999 18c-17.333 12.667 -31.333 19 -42 19c-23.333 0 -43.833 -10.167 -61.5 -30.5s-31.5 -43.5 -41.5 -69.5l39 -33l7 12
c4.66699 8.66699 9.33398 14.834 14.001 18.501s12 5.5 22 5.5c8 0 21.333 -5.66699 40 -17c11.333 -6.66699 20.666 -11.667 27.999 -15s14.333 -5 21 -5c21.333 0 39.166 10 53.499 30s27.166 43.667 38.499 71zM166.001 0v79h-32l18 85h175l22 -85h-44v-79h236v79h-30
l-167 604h-133l-161 -604h-34v-79h150zM300.001 252h-127l61 241h2z" />
    <glyph glyph-name="Adieresis" unicode="&#xc4;" horiz-adv-x="556" 
d="M293 801c0 -16.667 4.66699 -32 14 -46s21.666 -21 36.999 -21c16 0 28.5 7 37.5 21s13.5 29.333 13.5 46s-4.5 32 -13.5 46s-21.5 21 -37.5 21c-15.333 0 -27.666 -7 -36.999 -21s-14 -29.333 -14 -46zM162 801c0 -16.667 4.66699 -32 14 -46s21.666 -21 36.999 -21
c16 0 28.5 7 37.5 21s13.5 29.333 13.5 46s-4.5 32 -13.5 46s-21.5 21 -37.5 21c-15.333 0 -27.666 -7 -36.999 -21s-14 -29.333 -14 -46zM166 0v79h-32l18 85h175l22 -85h-44v-79h236v79h-30l-167 604h-133l-161 -604h-34v-79h150zM300 252h-127l61 241h2z" />
    <glyph glyph-name="Aring" unicode="&#xc5;" horiz-adv-x="556" 
d="M185 829c0 -26.667 8.5 -50.167 25.5 -70.5s39.5 -30.5 67.5 -30.5s50.5 10.167 67.5 30.5s25.5 43.833 25.5 70.5s-8.5 50.167 -25.5 70.5s-39.5 30.5 -67.5 30.5s-50.5 -10.167 -67.5 -30.5s-25.5 -43.833 -25.5 -70.5zM245 829c0 10.667 3 20.167 9 28.5
s14 12.5 24 12.5s18 -4.16699 24 -12.5s9 -17.833 9 -28.5c0 -10 -3 -19.333 -9 -28s-14 -13 -24 -13s-18 4.33301 -24 13s-9 18 -9 28zM166 0v79h-32l18 85h175l22 -85h-44v-79h236v79h-30l-167 604h-133l-161 -604h-34v-79h150zM300 252h-127l61 241h2z" />
    <glyph glyph-name="AE" unicode="&#xc6;" horiz-adv-x="741" 
d="M154 252l147 350h4v-350h-151zM130 0l-0.000976562 79h-51l37 85h189v-85h-36v-79h398v181h-63c0 -24 -1 -42.5 -3 -55.5s-5.66699 -22.833 -11 -29.5s-13.166 -11.167 -23.499 -13.5s-25.5 -3.5 -45.5 -3.5h-52v286h135v-48h63v176h-63v-49h-135v160h89
c15.333 0 26.833 -5.66699 34.5 -17s11.5 -25 11.5 -41h63v137h-489v-79h44l-228 -525h-36v-79h172z" />
    <glyph glyph-name="Ccedilla" unicode="&#xc7;" 
d="M472 583l-34.002 54.0068l-20 -18c-19.333 25.333 -38.833 45 -58.5 59s-42.5 21 -68.5 21c-48.667 0 -90.5 -13.333 -125.5 -40s-62.833 -60.834 -83.5 -102.501s-35.667 -84.834 -45 -129.501s-14 -85.667 -14 -123c0 -35.333 4.33301 -71.333 13 -108
s22 -70.834 40 -102.501s41 -57.5 69 -77.5s60.333 -30.333 97 -31l-23 -97c13.333 5.33301 26.666 8 39.999 8c8 0 15.833 -3.16699 23.5 -9.5s11.5 -13.833 11.5 -22.5c0 -17.333 -12.667 -26 -38 -26c-8 0 -19.167 2.66699 -33.5 8s-26.5 12 -36.5 20l-15 -54
c10.667 -8.66699 24.334 -15.834 41.001 -21.501s34.334 -8.5 53.001 -8.5c30.667 0 55.5 8.66699 74.5 26s28.5 38.666 28.5 63.999c0 18 -7.16699 35 -21.5 51s-30.5 24 -48.5 24c-0.666992 0 -4.33398 -0.333008 -11.001 -1h-11l9 42c22.667 3.33301 43.667 10.5 63 21.5
s36.833 24.333 52.5 40s29.834 32.167 42.501 49.5s27 39 43 65l-40 49l-6 -7c-20.667 -24 -39.334 -42.167 -56.001 -54.5s-37 -18.5 -61 -18.5c-29.333 0 -54.166 10.5 -74.499 31.5s-36.166 47.667 -47.499 80s-19.5 65.666 -24.5 99.999s-7.5 65.833 -7.5 94.5
c0 18.667 0.833008 37.334 2.5 56.001s5 36.667 10 54s12.5 31.666 22.5 42.999s23 17 39 17s28.833 -7.33301 38.5 -22s14.5 -30.334 14.5 -47.001c0 -14.667 -1.66699 -27.167 -5 -37.5s-9 -20.833 -17 -31.5l32 -52z" />
    <glyph glyph-name="Egrave" unicode="&#xc8;" horiz-adv-x="519" 
d="M191 898l-40 -103l199 -52l20 58zM384 444h-135.001v160h89c15.333 0 26.833 -5.66699 34.5 -17s11.5 -25 11.5 -41h63v137h-398v-79h36v-525h-36v-79h398v181h-63c0 -24 -1 -42.5 -3 -55.5s-5.66699 -22.833 -11 -29.5s-13.166 -11.167 -23.499 -13.5
s-25.5 -3.5 -45.5 -3.5h-52v286h135v-48h63v176h-63v-49z" />
    <glyph glyph-name="Eacute" unicode="&#xc9;" horiz-adv-x="519" 
d="M151 801l20 -58l199 52l-40 103zM384 444h-135.001v160h89c15.333 0 26.833 -5.66699 34.5 -17s11.5 -25 11.5 -41h63v137h-398v-79h36v-525h-36v-79h398v181h-63c0 -24 -1 -42.5 -3 -55.5s-5.66699 -22.833 -11 -29.5s-13.166 -11.167 -23.499 -13.5
s-25.5 -3.5 -45.5 -3.5h-52v286h135v-48h63v176h-63v-49z" />
    <glyph glyph-name="Ecircumflex" unicode="&#xca;" horiz-adv-x="519" 
d="M128 794l11 -67l121 46l120 -46l12 67l-132 81zM384 444h-135.001v160h89c15.333 0 26.833 -5.66699 34.5 -17s11.5 -25 11.5 -41h63v137h-398v-79h36v-525h-36v-79h398v181h-63c0 -24 -1 -42.5 -3 -55.5s-5.66699 -22.833 -11 -29.5s-13.166 -11.167 -23.499 -13.5
s-25.5 -3.5 -45.5 -3.5h-52v286h135v-48h63v176h-63v-49z" />
    <glyph glyph-name="Edieresis" unicode="&#xcb;" horiz-adv-x="519" 
d="M275 801c0 -16.667 4.66699 -32 14 -46s21.666 -21 36.999 -21c16 0 28.5 7 37.5 21s13.5 29.333 13.5 46s-4.5 32 -13.5 46s-21.5 21 -37.5 21c-15.333 0 -27.666 -7 -36.999 -21s-14 -29.333 -14 -46zM144 801c0 -16.667 4.66699 -32 14 -46s21.666 -21 36.999 -21
c16 0 28.5 7 37.5 21s13.5 29.333 13.5 46s-4.5 32 -13.5 46s-21.5 21 -37.5 21c-15.333 0 -27.666 -7 -36.999 -21s-14 -29.333 -14 -46zM384 444h-135.001v160h89c15.333 0 26.833 -5.66699 34.5 -17s11.5 -25 11.5 -41h63v137h-398v-79h36v-525h-36v-79h398v181h-63
c0 -24 -1 -42.5 -3 -55.5s-5.66699 -22.833 -11 -29.5s-13.166 -11.167 -23.499 -13.5s-25.5 -3.5 -45.5 -3.5h-52v286h135v-48h63v176h-63v-49z" />
    <glyph glyph-name="Igrave" unicode="&#xcc;" horiz-adv-x="333" 
d="M98 898l-40 -103l199 -52l20 58zM285 0v79h-36v525h36v79h-236v-79h36v-525h-36v-79h236z" />
    <glyph glyph-name="Iacute" unicode="&#xcd;" horiz-adv-x="333" 
d="M58 801l20 -58l199 52l-40 103zM285 0v79h-36v525h36v79h-236v-79h36v-525h-36v-79h236z" />
    <glyph glyph-name="Icircumflex" unicode="&#xce;" horiz-adv-x="333" 
d="M35 794l11 -67l121 46l120 -46l12 67l-132 81zM285 0v79h-36v525h36v79h-236v-79h36v-525h-36v-79h236z" />
    <glyph glyph-name="Idieresis" unicode="&#xcf;" horiz-adv-x="333" 
d="M182 801c0 -16.667 4.66699 -32 14 -46s21.666 -21 36.999 -21c16 0 28.5 7 37.5 21s13.5 29.333 13.5 46s-4.5 32 -13.5 46s-21.5 21 -37.5 21c-15.333 0 -27.666 -7 -36.999 -21s-14 -29.333 -14 -46zM51 801c0 -16.667 4.66699 -32 14 -46s21.666 -21 36.999 -21
c16 0 28.5 7 37.5 21s13.5 29.333 13.5 46s-4.5 32 -13.5 46s-21.5 21 -37.5 21c-15.333 0 -27.666 -7 -36.999 -21s-14 -29.333 -14 -46zM285 0v79h-36v525h36v79h-236v-79h36v-525h-36v-79h236z" />
    <glyph glyph-name="Eth" unicode="&#xd0;" horiz-adv-x="593" 
d="M58 356h35.999v-277h-36v-79h213c46 -0 87.833 8.83301 125.5 26.5s69.667 42.334 96 74.001s46.333 68.167 60 109.5s20.5 84.666 20.5 129.999c0 59.333 -8.66699 111 -26 155s-41.166 79.833 -71.499 107.5s-65.333 48 -105 61s-82.167 19.5 -127.5 19.5h-185v-79h36
v-173h-36v-75zM329.999 431l-71.999 0.000976562v173c32 -2.66699 58.167 -12.667 78.5 -30s35.666 -39 45.999 -65s17.333 -52.833 21 -80.5s5.5 -56.167 5.5 -85.5c0 -34.667 -1.5 -66.334 -4.5 -95.001s-9.33301 -56 -19 -82s-25 -47 -46 -63s-48.167 -24 -81.5 -24v277
h72v75z" />
    <glyph glyph-name="Ntilde" unicode="&#xd1;" horiz-adv-x="574" 
d="M379 864c-4 -10.667 -9.16602 -19.834 -15.499 -27.501s-13.833 -11.5 -22.5 -11.5c-9.33301 0 -22.666 6 -39.999 18c-17.333 12.667 -31.333 19 -42 19c-23.333 0 -43.833 -10.167 -61.5 -30.5s-31.5 -43.5 -41.5 -69.5l39 -33l7 12
c4.66699 8.66699 9.33398 14.834 14.001 18.501s12 5.5 22 5.5c8 0 21.333 -5.66699 40 -17c11.333 -6.66699 20.666 -11.667 27.999 -15s14.333 -5 21 -5c21.333 0 39.166 10 53.499 30s27.166 43.667 38.499 71zM203.001 0v79.001h-36v372h2
c16.667 -32.667 42 -79.334 76 -140.001c37.333 -67.333 67.5 -124 90.5 -170s42.5 -93.333 58.5 -142h97v605h36v79h-156v-79h36v-270h-2l-185 349h-173v-79h36v-525h-36v-79h156z" />
    <glyph glyph-name="Ograve" unicode="&#xd2;" horiz-adv-x="593" 
d="M228 898l-40 -103l199 -52l20 58zM257 620c24.667 0 46.5 -15.6689 65.5 -47.002s34.667 -70.5 47 -117.5s21.5 -92.833 27.5 -137.5s9 -79.334 9 -104.001c0 -54.667 -6.16699 -93.5 -18.5 -116.5s-29.5 -34.5 -51.5 -34.5c-24.667 0 -46.5 15.833 -65.5 47.5
s-34.667 70.834 -47 117.501s-21.5 92.334 -27.5 137.001s-9 79.334 -9 104.001c0 54.667 6.16699 93.5 18.5 116.5s29.5 34.5 51.5 34.5zM284 -16.002c39.333 0 76.168 8.5 110.501 25.5s64.166 41.5 89.499 73.5s45 70.833 59 116.5s21 96.834 21 153.501
c0 52 -6.5 99.333 -19.5 142s-31.333 79.334 -55 110.001s-50.834 54 -81.501 70s-63.667 24 -99 24c-39.333 0 -76.166 -8.33301 -110.499 -25s-64.166 -41.167 -89.499 -73.5s-45 -71.333 -59 -117s-21 -96.834 -21 -153.501c0 -52 6.66699 -99.333 20 -142
s31.666 -79.334 54.999 -110.001s50.5 -54 81.5 -70s63.833 -24 98.5 -24z" />
    <glyph glyph-name="Oacute" unicode="&#xd3;" horiz-adv-x="593" 
d="M188 801l20 -58l199 52l-40 103zM257 620c24.667 0 46.5 -15.6689 65.5 -47.002s34.667 -70.5 47 -117.5s21.5 -92.833 27.5 -137.5s9 -79.334 9 -104.001c0 -54.667 -6.16699 -93.5 -18.5 -116.5s-29.5 -34.5 -51.5 -34.5c-24.667 0 -46.5 15.833 -65.5 47.5
s-34.667 70.834 -47 117.501s-21.5 92.334 -27.5 137.001s-9 79.334 -9 104.001c0 54.667 6.16699 93.5 18.5 116.5s29.5 34.5 51.5 34.5zM284 -16.002c39.333 0 76.168 8.5 110.501 25.5s64.166 41.5 89.499 73.5s45 70.833 59 116.5s21 96.834 21 153.501
c0 52 -6.5 99.333 -19.5 142s-31.333 79.334 -55 110.001s-50.834 54 -81.501 70s-63.667 24 -99 24c-39.333 0 -76.166 -8.33301 -110.499 -25s-64.166 -41.167 -89.499 -73.5s-45 -71.333 -59 -117s-21 -96.834 -21 -153.501c0 -52 6.66699 -99.333 20 -142
s31.666 -79.334 54.999 -110.001s50.5 -54 81.5 -70s63.833 -24 98.5 -24z" />
    <glyph glyph-name="Ocircumflex" unicode="&#xd4;" horiz-adv-x="593" 
d="M165 794l11 -67l121 46l120 -46l12 67l-132 81zM257 620c24.667 0 46.5 -15.6689 65.5 -47.002s34.667 -70.5 47 -117.5s21.5 -92.833 27.5 -137.5s9 -79.334 9 -104.001c0 -54.667 -6.16699 -93.5 -18.5 -116.5s-29.5 -34.5 -51.5 -34.5
c-24.667 0 -46.5 15.833 -65.5 47.5s-34.667 70.834 -47 117.501s-21.5 92.334 -27.5 137.001s-9 79.334 -9 104.001c0 54.667 6.16699 93.5 18.5 116.5s29.5 34.5 51.5 34.5zM284 -16.002c39.333 0 76.168 8.5 110.501 25.5s64.166 41.5 89.499 73.5s45 70.833 59 116.5
s21 96.834 21 153.501c0 52 -6.5 99.333 -19.5 142s-31.333 79.334 -55 110.001s-50.834 54 -81.501 70s-63.667 24 -99 24c-39.333 0 -76.166 -8.33301 -110.499 -25s-64.166 -41.167 -89.499 -73.5s-45 -71.333 -59 -117s-21 -96.834 -21 -153.501
c0 -52 6.66699 -99.333 20 -142s31.666 -79.334 54.999 -110.001s50.5 -54 81.5 -70s63.833 -24 98.5 -24z" />
    <glyph glyph-name="Otilde" unicode="&#xd5;" horiz-adv-x="593" 
d="M389 864c-4 -10.667 -9.16602 -19.834 -15.499 -27.501s-13.833 -11.5 -22.5 -11.5c-9.33301 0 -22.666 6 -39.999 18c-17.333 12.667 -31.333 19 -42 19c-23.333 0 -43.833 -10.167 -61.5 -30.5s-31.5 -43.5 -41.5 -69.5l39 -33l7 12
c4.66699 8.66699 9.33398 14.834 14.001 18.501s12 5.5 22 5.5c8 0 21.333 -5.66699 40 -17c11.333 -6.66699 20.666 -11.667 27.999 -15s14.333 -5 21 -5c21.333 0 39.166 10 53.499 30s27.166 43.667 38.499 71zM257.001 620c24.667 0 46.5 -15.6689 65.5 -47.002
s34.667 -70.5 47 -117.5s21.5 -92.833 27.5 -137.5s9 -79.334 9 -104.001c0 -54.667 -6.16699 -93.5 -18.5 -116.5s-29.5 -34.5 -51.5 -34.5c-24.667 0 -46.5 15.833 -65.5 47.5s-34.667 70.834 -47 117.501s-21.5 92.334 -27.5 137.001s-9 79.334 -9 104.001
c0 54.667 6.16699 93.5 18.5 116.5s29.5 34.5 51.5 34.5zM284.001 -16.002c39.333 0 76.168 8.5 110.501 25.5s64.166 41.5 89.499 73.5s45 70.833 59 116.5s21 96.834 21 153.501c0 52 -6.5 99.333 -19.5 142s-31.333 79.334 -55 110.001s-50.834 54 -81.501 70
s-63.667 24 -99 24c-39.333 0 -76.166 -8.33301 -110.499 -25s-64.166 -41.167 -89.499 -73.5s-45 -71.333 -59 -117s-21 -96.834 -21 -153.501c0 -52 6.66699 -99.333 20 -142s31.666 -79.334 54.999 -110.001s50.5 -54 81.5 -70s63.833 -24 98.5 -24z" />
    <glyph glyph-name="Odieresis" unicode="&#xd6;" horiz-adv-x="593" 
d="M312 801c0 -16.667 4.66699 -32 14 -46s21.666 -21 36.999 -21c16 0 28.5 7 37.5 21s13.5 29.333 13.5 46s-4.5 32 -13.5 46s-21.5 21 -37.5 21c-15.333 0 -27.666 -7 -36.999 -21s-14 -29.333 -14 -46zM181 801c0 -16.667 4.66699 -32 14 -46s21.666 -21 36.999 -21
c16 0 28.5 7 37.5 21s13.5 29.333 13.5 46s-4.5 32 -13.5 46s-21.5 21 -37.5 21c-15.333 0 -27.666 -7 -36.999 -21s-14 -29.333 -14 -46zM257 620c24.667 0 46.5 -15.6689 65.5 -47.002s34.667 -70.5 47 -117.5s21.5 -92.833 27.5 -137.5s9 -79.334 9 -104.001
c0 -54.667 -6.16699 -93.5 -18.5 -116.5s-29.5 -34.5 -51.5 -34.5c-24.667 0 -46.5 15.833 -65.5 47.5s-34.667 70.834 -47 117.501s-21.5 92.334 -27.5 137.001s-9 79.334 -9 104.001c0 54.667 6.16699 93.5 18.5 116.5s29.5 34.5 51.5 34.5zM284 -16.002
c39.333 0 76.168 8.5 110.501 25.5s64.166 41.5 89.499 73.5s45 70.833 59 116.5s21 96.834 21 153.501c0 52 -6.5 99.333 -19.5 142s-31.333 79.334 -55 110.001s-50.834 54 -81.501 70s-63.667 24 -99 24c-39.333 0 -76.166 -8.33301 -110.499 -25
s-64.166 -41.167 -89.499 -73.5s-45 -71.333 -59 -117s-21 -96.834 -21 -153.501c0 -52 6.66699 -99.333 20 -142s31.666 -79.334 54.999 -110.001s50.5 -54 81.5 -70s63.833 -24 98.5 -24z" />
    <glyph glyph-name="multiply" unicode="&#xd7;" horiz-adv-x="600" 
d="M218 246l-162 -162l83 -82l161 162l162 -162l82 82l-162 162l162 161l-82 82l-162 -161l-161 161l-83 -82z" />
    <glyph glyph-name="Oslash" unicode="&#xd8;" horiz-adv-x="593" 
d="M213 274c-8.66699 37.333 -15.1689 74 -19.502 110s-6.5 64.333 -6.5 85c0 54.667 6.16699 93.5 18.5 116.5s29.5 34.5 51.5 34.5c20.667 0 39.334 -11.333 56.001 -34s31.334 -53 44.001 -91zM382.998 393c7.33301 -34.667 13 -68.5 17 -101.5s6 -58.833 6 -77.5
c0 -54.667 -6.16699 -93.5 -18.5 -116.5s-29.5 -34.5 -51.5 -34.5c-19.333 0 -37 10 -53 30s-30.333 47.333 -43 82zM453.998 643c-42.667 37.333 -91 56 -145 56c-39.333 0 -76.166 -8.33301 -110.499 -25s-64.166 -41.167 -89.499 -73.5s-45 -71.333 -59 -117
s-21 -96.834 -21 -153.501c0 -48 5.66699 -92.167 17 -132.5s27.333 -75.5 48 -105.5l-88 -135h92l50 77c40.667 -33.333 86 -50 136 -50c39.333 0 76.166 8.5 110.499 25.5s64.166 41.5 89.499 73.5s45 70.833 59 116.5s21 96.834 21 153.501c0 45.333 -5 87.333 -15 126
s-24.333 72.667 -43 102l81 125h-92z" />
    <glyph glyph-name="Ugrave" unicode="&#xd9;" horiz-adv-x="593" 
d="M228 898l-40 -103l199 -52l20 58zM373 0h181v79h-36v604h-200v-79h36v-444c0 -22 -5.33301 -37.833 -16 -47.5s-24.667 -14.5 -42 -14.5s-31.333 4.83301 -42 14.5s-16 25.5 -16 47.5v523h-200v-79h36v-465c0 -48.667 13.667 -86.667 41 -114s64 -41 110 -41
c26.667 0 52 6.66699 76 20s43 31 57 53z" />
    <glyph glyph-name="Uacute" unicode="&#xda;" horiz-adv-x="593" 
d="M188 801l20 -58l199 52l-40 103zM373 0h181v79h-36v604h-200v-79h36v-444c0 -22 -5.33301 -37.833 -16 -47.5s-24.667 -14.5 -42 -14.5s-31.333 4.83301 -42 14.5s-16 25.5 -16 47.5v523h-200v-79h36v-465c0 -48.667 13.667 -86.667 41 -114s64 -41 110 -41
c26.667 0 52 6.66699 76 20s43 31 57 53z" />
    <glyph glyph-name="Ucircumflex" unicode="&#xdb;" horiz-adv-x="593" 
d="M165 794l11 -67l121 46l120 -46l12 67l-132 81zM373 0h181v79h-36v604h-200v-79h36v-444c0 -22 -5.33301 -37.833 -16 -47.5s-24.667 -14.5 -42 -14.5s-31.333 4.83301 -42 14.5s-16 25.5 -16 47.5v523h-200v-79h36v-465c0 -48.667 13.667 -86.667 41 -114
s64 -41 110 -41c26.667 0 52 6.66699 76 20s43 31 57 53z" />
    <glyph glyph-name="Udieresis" unicode="&#xdc;" horiz-adv-x="593" 
d="M312 801c0 -16.667 4.66699 -32 14 -46s21.666 -21 36.999 -21c16 0 28.5 7 37.5 21s13.5 29.333 13.5 46s-4.5 32 -13.5 46s-21.5 21 -37.5 21c-15.333 0 -27.666 -7 -36.999 -21s-14 -29.333 -14 -46zM181 801c0 -16.667 4.66699 -32 14 -46s21.666 -21 36.999 -21
c16 0 28.5 7 37.5 21s13.5 29.333 13.5 46s-4.5 32 -13.5 46s-21.5 21 -37.5 21c-15.333 0 -27.666 -7 -36.999 -21s-14 -29.333 -14 -46zM373 0h181v79h-36v604h-200v-79h36v-444c0 -22 -5.33301 -37.833 -16 -47.5s-24.667 -14.5 -42 -14.5s-31.333 4.83301 -42 14.5
s-16 25.5 -16 47.5v523h-200v-79h36v-465c0 -48.667 13.667 -86.667 41 -114s64 -41 110 -41c26.667 0 52 6.66699 76 20s43 31 57 53z" />
    <glyph glyph-name="Yacute" unicode="&#xdd;" horiz-adv-x="519" 
d="M157 801l20 -58l199 52l-40 103zM169 -11c6.66699 3.33301 17.501 7.33301 32.501 12s25.833 7 32.5 7c10.667 0 28.667 -3.66699 54 -11c28.667 -8.66699 50.334 -13 65.001 -13c21.333 0 45.666 6 72.999 18l34 170l-44 13c-5.33301 -13.333 -10.833 -23.333 -16.5 -30
s-12.834 -10 -21.501 -10c-5.33301 0 -17.666 1.33301 -36.999 4c-18 2 -29.333 3 -34 3c-12.667 0 -23.334 -1.33301 -32.001 -4l204 456h32v79h-148v-79h35l-88 -200l-95 200h42v79h-248v-79h35l183 -384l-92 -198z" />
    <glyph glyph-name="Thorn" unicode="&#xde;" horiz-adv-x="556" 
d="M96 79h-31.999v-79h230v79h-34v115l42 -3c9.33301 -0.666992 17.666 -1 24.999 -1c29.333 0 56.5 3.16699 81.5 9.5s46.833 16.333 65.5 30s33.5 31.667 44.5 54s16.5 48.833 16.5 79.5c0 38 -7.5 69.667 -22.5 95s-34.5 44.5 -58.5 57.5s-50.333 22 -79 27
s-59 7.5 -91 7.5h-24v54h34v79h-230v-79h32v-525zM260.001 484c40 -1.33301 69.502 -14.165 88.502 -38.498s28.5 -53.833 28.5 -88.5c0 -12.667 -0.666992 -24.834 -2 -36.501s-4.33301 -22.834 -9 -33.501s-11.834 -19.5 -21.501 -26.5s-21.834 -10.5 -36.501 -10.5
c-24 0 -40 6.66699 -48 20v214z" />
    <glyph glyph-name="germandbls" unicode="&#xdf;" horiz-adv-x="519" 
d="M70 60l-35.999 -0.00195312v-60h182v558c0 20.667 3.5 37.334 10.5 50.001s18.167 19 33.5 19c14 0 24.167 -6 30.5 -18s9.5 -27.333 9.5 -46c0 -12.667 -2 -25.167 -6 -37.5s-9.66699 -26.833 -17 -43.5l-2 -6l-4 -9c-7.33301 -17.333 -12.833 -31.666 -16.5 -42.999
s-5.5 -23.333 -5.5 -36c0 -24.667 4.66699 -46.667 14 -66s22.333 -40 39 -62l7 -9c15.333 -20 26.666 -36.667 33.999 -50s11 -27.666 11 -42.999c0 -31.333 -13.667 -47 -41 -47c-9.33301 0 -19.5 3.16699 -30.5 9.5s-21.167 14.5 -30.5 24.5v-139
c22.667 -14 48 -21 76 -21c50 0 89.5 17.5 118.5 52.5s43.5 79.167 43.5 132.5c0 34 -6.33301 63.667 -19 89s-29.334 49.333 -50.001 72c-6 6.66699 -15 16 -27 28c-15.333 14.667 -26.166 26.167 -32.499 34.5s-9.5 16.833 -9.5 25.5c0 10.667 2.16699 19.5 6.5 26.5
s11.166 14.833 20.499 23.5c4.66699 5.33301 7.33398 8.33301 8.00098 9c10.667 11.333 19 23.166 25 35.499s9 28.833 9 49.5c0 42 -14.833 75.167 -44.5 99.5s-64.5 36.5 -104.5 36.5c-64.667 0 -114 -20.667 -148 -62s-52 -97 -54 -167h-17l-25 -77h42v-333z" />
    <glyph glyph-name="agrave" unicode="&#xe0;" horiz-adv-x="463" 
d="M169 730l-40 -103l199 -52l20 58zM278 0l163.003 -0.000976562v60h-36v320c0 36.667 -12.833 66.834 -38.5 90.501s-57.5 35.5 -95.5 35.5c-20.667 0 -39 -1.83301 -55 -5.5s-32.333 -10.167 -49 -19.5v28l-51 15l-49 -171l51 -17
c15.333 20.667 30.666 37.167 45.999 49.5s32.666 18.5 51.999 18.5c17.333 0 29 -5.16699 35 -15.5s9 -25.166 9 -44.499v-14c-0.666992 -7.33301 -1 -12 -1 -14c-10.667 1.33301 -20.5 2.16602 -29.5 2.49902s-18.833 0.5 -29.5 0.5c-50 0 -93.167 -16.167 -129.5 -48.5
s-54.5 -76.833 -54.5 -133.5c0 -43.333 11.167 -79.5 33.5 -108.5s53.166 -43.5 92.499 -43.5c24 0 46.833 5 68.5 15s38.167 24 49.5 42zM259.003 134.999c0 -28.667 -14.333 -42.999 -43 -42.999c-20 0 -34 7.66699 -42 23s-12 36.333 -12 63
c0 25.333 6.83301 45.166 20.5 59.499s33.5 21.5 59.5 21.5c3.33301 0 9 -0.666992 17 -2v-122z" />
    <glyph glyph-name="aacute" unicode="&#xe1;" horiz-adv-x="463" 
d="M129 633l20 -58l199 52l-40 103zM278 0l163.003 -0.000976562v60h-36v320c0 36.667 -12.833 66.834 -38.5 90.501s-57.5 35.5 -95.5 35.5c-20.667 0 -39 -1.83301 -55 -5.5s-32.333 -10.167 -49 -19.5v28l-51 15l-49 -171l51 -17
c15.333 20.667 30.666 37.167 45.999 49.5s32.666 18.5 51.999 18.5c17.333 0 29 -5.16699 35 -15.5s9 -25.166 9 -44.499v-14c-0.666992 -7.33301 -1 -12 -1 -14c-10.667 1.33301 -20.5 2.16602 -29.5 2.49902s-18.833 0.5 -29.5 0.5c-50 0 -93.167 -16.167 -129.5 -48.5
s-54.5 -76.833 -54.5 -133.5c0 -43.333 11.167 -79.5 33.5 -108.5s53.166 -43.5 92.499 -43.5c24 0 46.833 5 68.5 15s38.167 24 49.5 42zM259.003 134.999c0 -28.667 -14.333 -42.999 -43 -42.999c-20 0 -34 7.66699 -42 23s-12 36.333 -12 63
c0 25.333 6.83301 45.166 20.5 59.499s33.5 21.5 59.5 21.5c3.33301 0 9 -0.666992 17 -2v-122z" />
    <glyph glyph-name="acircumflex" unicode="&#xe2;" horiz-adv-x="463" 
d="M106 626l11 -67l121 46l120 -46l12 67l-132 81zM278 0l163.003 -0.000976562v60h-36v320c0 36.667 -12.833 66.834 -38.5 90.501s-57.5 35.5 -95.5 35.5c-20.667 0 -39 -1.83301 -55 -5.5s-32.333 -10.167 -49 -19.5v28l-51 15l-49 -171l51 -17
c15.333 20.667 30.666 37.167 45.999 49.5s32.666 18.5 51.999 18.5c17.333 0 29 -5.16699 35 -15.5s9 -25.166 9 -44.499v-14c-0.666992 -7.33301 -1 -12 -1 -14c-10.667 1.33301 -20.5 2.16602 -29.5 2.49902s-18.833 0.5 -29.5 0.5c-50 0 -93.167 -16.167 -129.5 -48.5
s-54.5 -76.833 -54.5 -133.5c0 -43.333 11.167 -79.5 33.5 -108.5s53.166 -43.5 92.499 -43.5c24 0 46.833 5 68.5 15s38.167 24 49.5 42zM259.003 134.999c0 -28.667 -14.333 -42.999 -43 -42.999c-20 0 -34 7.66699 -42 23s-12 36.333 -12 63
c0 25.333 6.83301 45.166 20.5 59.499s33.5 21.5 59.5 21.5c3.33301 0 9 -0.666992 17 -2v-122z" />
    <glyph glyph-name="atilde" unicode="&#xe3;" horiz-adv-x="463" 
d="M330 696c-4 -10.667 -9.16602 -19.834 -15.499 -27.501s-13.833 -11.5 -22.5 -11.5c-9.33301 0 -22.666 6 -39.999 18c-17.333 12.667 -31.333 19 -42 19c-23.333 0 -43.833 -10.167 -61.5 -30.5s-31.5 -43.5 -41.5 -69.5l39 -33l7 12
c4.66699 8.66699 9.33398 14.834 14.001 18.501s12 5.5 22 5.5c8 0 21.333 -5.66699 40 -17c11.333 -6.66699 20.666 -11.667 27.999 -15s14.333 -5 21 -5c21.333 0 39.166 10 53.499 30s27.166 43.667 38.499 71zM278.001 0l163.003 -0.000976562v60h-36v320
c0 36.667 -12.833 66.834 -38.5 90.501s-57.5 35.5 -95.5 35.5c-20.667 0 -39 -1.83301 -55 -5.5s-32.333 -10.167 -49 -19.5v28l-51 15l-49 -171l51 -17c15.333 20.667 30.666 37.167 45.999 49.5s32.666 18.5 51.999 18.5c17.333 0 29 -5.16699 35 -15.5
s9 -25.166 9 -44.499v-14c-0.666992 -7.33301 -1 -12 -1 -14c-10.667 1.33301 -20.5 2.16602 -29.5 2.49902s-18.833 0.5 -29.5 0.5c-50 0 -93.167 -16.167 -129.5 -48.5s-54.5 -76.833 -54.5 -133.5c0 -43.333 11.167 -79.5 33.5 -108.5s53.166 -43.5 92.499 -43.5
c24 0 46.833 5 68.5 15s38.167 24 49.5 42zM259.004 134.999c0 -28.667 -14.333 -42.999 -43 -42.999c-20 0 -34 7.66699 -42 23s-12 36.333 -12 63c0 25.333 6.83301 45.166 20.5 59.499s33.5 21.5 59.5 21.5c3.33301 0 9 -0.666992 17 -2v-122z" />
    <glyph glyph-name="adieresis" unicode="&#xe4;" horiz-adv-x="463" 
d="M253 633c0 -16.667 4.66699 -32 14 -46s21.666 -21 36.999 -21c16 0 28.5 7 37.5 21s13.5 29.333 13.5 46s-4.5 32 -13.5 46s-21.5 21 -37.5 21c-15.333 0 -27.666 -7 -36.999 -21s-14 -29.333 -14 -46zM122 633c0 -16.667 4.66699 -32 14 -46s21.666 -21 36.999 -21
c16 0 28.5 7 37.5 21s13.5 29.333 13.5 46s-4.5 32 -13.5 46s-21.5 21 -37.5 21c-15.333 0 -27.666 -7 -36.999 -21s-14 -29.333 -14 -46zM278 0l163.003 -0.000976562v60h-36v320c0 36.667 -12.833 66.834 -38.5 90.501s-57.5 35.5 -95.5 35.5
c-20.667 0 -39 -1.83301 -55 -5.5s-32.333 -10.167 -49 -19.5v28l-51 15l-49 -171l51 -17c15.333 20.667 30.666 37.167 45.999 49.5s32.666 18.5 51.999 18.5c17.333 0 29 -5.16699 35 -15.5s9 -25.166 9 -44.499v-14c-0.666992 -7.33301 -1 -12 -1 -14
c-10.667 1.33301 -20.5 2.16602 -29.5 2.49902s-18.833 0.5 -29.5 0.5c-50 0 -93.167 -16.167 -129.5 -48.5s-54.5 -76.833 -54.5 -133.5c0 -43.333 11.167 -79.5 33.5 -108.5s53.166 -43.5 92.499 -43.5c24 0 46.833 5 68.5 15s38.167 24 49.5 42zM259.003 134.999
c0 -28.667 -14.333 -42.999 -43 -42.999c-20 0 -34 7.66699 -42 23s-12 36.333 -12 63c0 25.333 6.83301 45.166 20.5 59.499s33.5 21.5 59.5 21.5c3.33301 0 9 -0.666992 17 -2v-122z" />
    <glyph glyph-name="aring" unicode="&#xe5;" horiz-adv-x="463" 
d="M145 661c0 -26.667 8.5 -50.167 25.5 -70.5s39.5 -30.5 67.5 -30.5s50.5 10.167 67.5 30.5s25.5 43.833 25.5 70.5s-8.5 50.167 -25.5 70.5s-39.5 30.5 -67.5 30.5s-50.5 -10.167 -67.5 -30.5s-25.5 -43.833 -25.5 -70.5zM205 661c0 10.667 3 20.167 9 28.5
s14 12.5 24 12.5s18 -4.16699 24 -12.5s9 -17.833 9 -28.5c0 -10 -3 -19.333 -9 -28s-14 -13 -24 -13s-18 4.33301 -24 13s-9 18 -9 28zM278 0l163.003 -0.000976562v60h-36v320c0 36.667 -12.833 66.834 -38.5 90.501s-57.5 35.5 -95.5 35.5
c-20.667 0 -39 -1.83301 -55 -5.5s-32.333 -10.167 -49 -19.5v28l-51 15l-49 -171l51 -17c15.333 20.667 30.666 37.167 45.999 49.5s32.666 18.5 51.999 18.5c17.333 0 29 -5.16699 35 -15.5s9 -25.166 9 -44.499v-14c-0.666992 -7.33301 -1 -12 -1 -14
c-10.667 1.33301 -20.5 2.16602 -29.5 2.49902s-18.833 0.5 -29.5 0.5c-50 0 -93.167 -16.167 -129.5 -48.5s-54.5 -76.833 -54.5 -133.5c0 -43.333 11.167 -79.5 33.5 -108.5s53.166 -43.5 92.499 -43.5c24 0 46.833 5 68.5 15s38.167 24 49.5 42zM259.003 134.999
c0 -28.667 -14.333 -42.999 -43 -42.999c-20 0 -34 7.66699 -42 23s-12 36.333 -12 63c0 25.333 6.83301 45.166 20.5 59.499s33.5 21.5 59.5 21.5c3.33301 0 9 -0.666992 17 -2v-122z" />
    <glyph glyph-name="ae" unicode="&#xe6;" horiz-adv-x="630" 
d="M257 135c0 -28.667 -14.333 -42.999 -43 -42.999c-20 0 -34 7.66699 -42 23s-12 36.333 -12 63c0 25.333 6.83301 45.166 20.5 59.499s33.5 21.5 59.5 21.5c3.33301 0 9 -0.666992 17 -2v-122zM606 291.001c-0.666992 22 -5 45.501 -13 70.501s-19.667 48.5 -35 70.5
s-33.5 39.833 -54.5 53.5s-44.167 20.5 -69.5 20.5c-42 0 -77.667 -15.667 -107 -47c-0.666992 0 -1 0.333008 -1 1h-1v-1h-1c-10 13.333 -23.167 24.5 -39.5 33.5s-32.166 13.5 -47.499 13.5c-28.667 0 -55.334 -6.66699 -80.001 -20v26l-51 13l-43 -171l47 -15
c14.667 22 28.5 38.333 41.5 49s28.833 16 47.5 16c22.667 0 38 -7.16699 46 -21.5s12 -36.5 12 -66.5c-10.667 1.33301 -20.5 2.16602 -29.5 2.49902s-18.833 0.5 -29.5 0.5c-50 0 -93.167 -16.167 -129.5 -48.5s-54.5 -76.833 -54.5 -133.5
c0 -43.333 11.167 -79.5 33.5 -108.5s53.166 -43.5 92.499 -43.5c34.667 0 63.667 7.5 87 22.5s44.333 36.833 63 65.5c12.667 -27.333 30.334 -48.833 53.001 -64.5s47.334 -23.5 74.001 -23.5c40 0 76.667 11.833 110 35.5s60.666 54.5 81.999 92.5l-25 40
c-10.667 -13.333 -26 -25 -46 -35s-39.333 -15 -58 -15c-21.333 0 -39.5 8.16699 -54.5 24.5s-25.167 37.5 -30.5 63.5zM377 262.002c-5.33301 25.333 -7.99805 49.333 -7.99805 72c0 28 3.33301 51.667 10 71s18.667 29 36 29c10.667 0 19.667 -3.66699 27 -11
s13.166 -16.666 17.499 -27.999s7.66602 -22.5 9.99902 -33.5s4.5 -23.5 6.5 -37.5c0.666992 -4.66699 1 -7.33398 1 -8.00098z" />
    <glyph glyph-name="ccedilla" unicode="&#xe7;" horiz-adv-x="389" 
d="M362 405c-0.666992 6 -4.50391 14.6719 -11.5039 26.0049s-16.833 22.833 -29.5 34.5s-26.834 21.334 -42.501 29.001s-31.834 11.5 -48.501 11.5c-31.333 0 -60 -8.16699 -86 -24.5s-48.167 -38.5 -66.5 -66.5s-32.333 -59.5 -42 -94.5s-14.5 -71.167 -14.5 -108.5
c0 -25.333 2.83301 -50.333 8.5 -75s14.167 -47.334 25.5 -68.001s26 -38.167 44 -52.5s39.333 -23.5 64 -27.5l-24 -101c13.333 5.33301 26.666 8 39.999 8c8 0 15.833 -3.16699 23.5 -9.5s11.5 -13.833 11.5 -22.5c0 -17.333 -12.667 -26 -38 -26
c-8 0 -19.167 2.66699 -33.5 8s-26.5 12 -36.5 20l-15 -54c10.667 -8.66699 24.334 -15.834 41.001 -21.501s34.334 -8.5 53.001 -8.5c30.667 0 55.5 8.66699 74.5 26s28.5 38.666 28.5 63.999c0 18 -7.16699 35 -21.5 51s-30.5 24 -48.5 24
c-0.666992 0 -4.33398 -0.333008 -11.001 -1h-11l9 40c22 1.33301 42 7.5 60 18.5s33.833 25.167 47.5 42.5s25.167 36.333 34.5 57s16.666 41.667 21.999 63l-33 31c-0.666992 -0.666992 -2.66699 -3.33398 -6 -8.00098c-15.333 -20 -29 -35.333 -41 -46
s-26.333 -16 -43 -16c-19.333 0 -35.666 6.83301 -48.999 20.5s-23.666 31 -30.999 52s-12.666 42.667 -15.999 65s-5 43.166 -5 62.499c0 8.66699 0.333008 17.5 1 26.5s2.33398 17.667 5.00098 26s6.66699 15.166 12 20.499s12 8 20 8c10 0 19.333 -5 28 -15
s16.334 -22.167 23.001 -36.5s12.334 -28.5 17.001 -42.5s8.33398 -26.333 11.001 -37z" />
    <glyph glyph-name="egrave" unicode="&#xe8;" horiz-adv-x="407" 
d="M141 730l-40 -103l199 -52l20 58zM360 153c-10.667 -13.333 -26 -25.001 -46 -35.001s-39.333 -15 -58 -15c-21.333 0 -39.5 8.16699 -54.5 24.5s-25.167 37.5 -30.5 63.5l211 100c-0.666992 22 -5 45.5 -13 70.5s-19.667 48.5 -35 70.5s-33.5 39.833 -54.5 53.5
s-44.167 20.5 -69.5 20.5c-29.333 0 -55.833 -7.83301 -79.5 -23.5s-43.667 -36.667 -60 -63s-28.666 -56.166 -36.999 -89.499s-12.5 -67.333 -12.5 -102c0 -34 4.5 -66 13.5 -96s21.333 -56 37 -78s34 -39 55 -51s43.167 -18 66.5 -18c40 0 76.667 11.833 110 35.5
s60.666 54.5 81.999 92.5zM153 261.999c-5.33301 25.333 -7.99805 49.333 -7.99805 72c0 28 3.33301 51.667 10 71s18.667 29 36 29c10.667 0 19.667 -3.66699 27 -11s13.166 -16.666 17.499 -27.999s7.66602 -22.5 9.99902 -33.5s4.5 -23.5 6.5 -37.5
c0.666992 -4.66699 1 -7.33398 1 -8.00098z" />
    <glyph glyph-name="eacute" unicode="&#xe9;" horiz-adv-x="407" 
d="M101 633l20 -58l199 52l-40 103zM360 153c-10.667 -13.333 -26 -25.001 -46 -35.001s-39.333 -15 -58 -15c-21.333 0 -39.5 8.16699 -54.5 24.5s-25.167 37.5 -30.5 63.5l211 100c-0.666992 22 -5 45.5 -13 70.5s-19.667 48.5 -35 70.5s-33.5 39.833 -54.5 53.5
s-44.167 20.5 -69.5 20.5c-29.333 0 -55.833 -7.83301 -79.5 -23.5s-43.667 -36.667 -60 -63s-28.666 -56.166 -36.999 -89.499s-12.5 -67.333 -12.5 -102c0 -34 4.5 -66 13.5 -96s21.333 -56 37 -78s34 -39 55 -51s43.167 -18 66.5 -18c40 0 76.667 11.833 110 35.5
s60.666 54.5 81.999 92.5zM153 261.999c-5.33301 25.333 -7.99805 49.333 -7.99805 72c0 28 3.33301 51.667 10 71s18.667 29 36 29c10.667 0 19.667 -3.66699 27 -11s13.166 -16.666 17.499 -27.999s7.66602 -22.5 9.99902 -33.5s4.5 -23.5 6.5 -37.5
c0.666992 -4.66699 1 -7.33398 1 -8.00098z" />
    <glyph glyph-name="ecircumflex" unicode="&#xea;" horiz-adv-x="407" 
d="M78 626l11 -67l121 46l120 -46l12 67l-132 81zM360 153c-10.667 -13.333 -26 -25.001 -46 -35.001s-39.333 -15 -58 -15c-21.333 0 -39.5 8.16699 -54.5 24.5s-25.167 37.5 -30.5 63.5l211 100c-0.666992 22 -5 45.5 -13 70.5s-19.667 48.5 -35 70.5
s-33.5 39.833 -54.5 53.5s-44.167 20.5 -69.5 20.5c-29.333 0 -55.833 -7.83301 -79.5 -23.5s-43.667 -36.667 -60 -63s-28.666 -56.166 -36.999 -89.499s-12.5 -67.333 -12.5 -102c0 -34 4.5 -66 13.5 -96s21.333 -56 37 -78s34 -39 55 -51s43.167 -18 66.5 -18
c40 0 76.667 11.833 110 35.5s60.666 54.5 81.999 92.5zM153 261.999c-5.33301 25.333 -7.99805 49.333 -7.99805 72c0 28 3.33301 51.667 10 71s18.667 29 36 29c10.667 0 19.667 -3.66699 27 -11s13.166 -16.666 17.499 -27.999s7.66602 -22.5 9.99902 -33.5
s4.5 -23.5 6.5 -37.5c0.666992 -4.66699 1 -7.33398 1 -8.00098z" />
    <glyph glyph-name="edieresis" unicode="&#xeb;" horiz-adv-x="407" 
d="M225 633c0 -16.667 4.66699 -32 14 -46s21.666 -21 36.999 -21c16 0 28.5 7 37.5 21s13.5 29.333 13.5 46s-4.5 32 -13.5 46s-21.5 21 -37.5 21c-15.333 0 -27.666 -7 -36.999 -21s-14 -29.333 -14 -46zM94 633c0 -16.667 4.66699 -32 14 -46s21.666 -21 36.999 -21
c16 0 28.5 7 37.5 21s13.5 29.333 13.5 46s-4.5 32 -13.5 46s-21.5 21 -37.5 21c-15.333 0 -27.666 -7 -36.999 -21s-14 -29.333 -14 -46zM360 153c-10.667 -13.333 -26 -25.001 -46 -35.001s-39.333 -15 -58 -15c-21.333 0 -39.5 8.16699 -54.5 24.5
s-25.167 37.5 -30.5 63.5l211 100c-0.666992 22 -5 45.5 -13 70.5s-19.667 48.5 -35 70.5s-33.5 39.833 -54.5 53.5s-44.167 20.5 -69.5 20.5c-29.333 0 -55.833 -7.83301 -79.5 -23.5s-43.667 -36.667 -60 -63s-28.666 -56.166 -36.999 -89.499s-12.5 -67.333 -12.5 -102
c0 -34 4.5 -66 13.5 -96s21.333 -56 37 -78s34 -39 55 -51s43.167 -18 66.5 -18c40 0 76.667 11.833 110 35.5s60.666 54.5 81.999 92.5zM153 261.999c-5.33301 25.333 -7.99805 49.333 -7.99805 72c0 28 3.33301 51.667 10 71s18.667 29 36 29
c10.667 0 19.667 -3.66699 27 -11s13.166 -16.666 17.499 -27.999s7.66602 -22.5 9.99902 -33.5s4.5 -23.5 6.5 -37.5c0.666992 -4.66699 1 -7.33398 1 -8.00098z" />
    <glyph glyph-name="igrave" unicode="&#xec;" horiz-adv-x="278" 
d="M70 730l-40 -103l199 -52l20 58zM247 0v60h-35v333c0 41.333 1.33301 79 4 113l-184 -61v-58l34 11v-338h-34v-60h215z" />
    <glyph glyph-name="iacute" unicode="&#xed;" horiz-adv-x="278" 
d="M30 633l20 -58l199 52l-40 103zM247 0v60h-35v333c0 41.333 1.33301 79 4 113l-184 -61v-58l34 11v-338h-34v-60h215z" />
    <glyph glyph-name="icircumflex" unicode="&#xee;" horiz-adv-x="278" 
d="M7 626l11 -67l121 46l120 -46l12 67l-132 81zM247 0v60h-35v333c0 41.333 1.33301 79 4 113l-184 -61v-58l34 11v-338h-34v-60h215z" />
    <glyph glyph-name="idieresis" unicode="&#xef;" horiz-adv-x="278" 
d="M154 633c0 -16.667 4.66699 -32 14 -46s21.666 -21 36.999 -21c16 0 28.5 7 37.5 21s13.5 29.333 13.5 46s-4.5 32 -13.5 46s-21.5 21 -37.5 21c-15.333 0 -27.666 -7 -36.999 -21s-14 -29.333 -14 -46zM23 633c0 -16.667 4.66699 -32 14 -46s21.666 -21 36.999 -21
c16 0 28.5 7 37.5 21s13.5 29.333 13.5 46s-4.5 32 -13.5 46s-21.5 21 -37.5 21c-15.333 0 -27.666 -7 -36.999 -21s-14 -29.333 -14 -46zM247 0v60h-35v333c0 41.333 1.33301 79 4 113l-184 -61v-58l34 11v-338h-34v-60h215z" />
    <glyph glyph-name="eth" unicode="&#xf0;" 
d="M327 157c0 -12 -0.333984 -22.999 -1.00098 -32.999s-2.66699 -20.333 -6 -31s-8.83301 -19.5 -16.5 -26.5s-17.834 -10.5 -30.501 -10.5c-18 0 -33.5 8.33301 -46.5 25s-23.333 37.667 -31 63s-13.167 50.833 -16.5 76.5s-5 48.167 -5 67.5c0 12 0.5 23.167 1.5 33.5
s3.16699 20.666 6.5 30.999s8.83301 19 16.5 26s17.834 10.5 30.501 10.5c18 0 33.333 -8.33301 46 -25s22.834 -37.667 30.501 -63s13.167 -51 16.5 -77s5 -48.333 5 -67zM88.999 566.001l26.9971 -46.999l96 62c14 -20 25.333 -40.333 34 -61s13.334 -41 14.001 -61
c-3.33301 0.666992 -8.66602 1 -15.999 1c-28.667 0 -56.167 -5.5 -82.5 -16.5s-49.5 -27 -69.5 -48s-35.667 -46 -47 -75s-17 -61.5 -17 -97.5c0 -72.667 20.667 -130.5 62 -173.5s94.333 -64.5 159 -64.5c68.667 0 122.834 25.833 162.501 77.5s59.5 119.167 59.5 202.5
c0 30.667 -4.16699 62.667 -12.5 96s-20.5 66.5 -36.5 99.5s-35 64.167 -57 93.5s-46.333 55.666 -73 78.999l84 54l-27 47l-102 -66c-51.333 35.333 -103.333 55 -156 59l-11 -33c20 -8 38.333 -18 55 -30s30.667 -25.667 42 -41z" />
    <glyph glyph-name="ntilde" unicode="&#xf1;" horiz-adv-x="519" 
d="M352 696c-4 -10.667 -9.16602 -19.834 -15.499 -27.501s-13.833 -11.5 -22.5 -11.5c-9.33301 0 -22.666 6 -39.999 18c-17.333 12.667 -31.333 19 -42 19c-23.333 0 -43.833 -10.167 -61.5 -30.5s-31.5 -43.5 -41.5 -69.5l39 -33l7 12
c4.66699 8.66699 9.33398 14.834 14.001 18.501s12 5.5 22 5.5c8 0 21.333 -5.66699 40 -17c11.333 -6.66699 20.666 -11.667 27.999 -15s14.333 -5 21 -5c21.333 0 39.166 10 53.499 30s27.166 43.667 38.499 71zM247.001 0l0.000976562 60h-36v301c16 16 33.667 24 53 24
c30 0 45 -16.333 45 -49v-276h-36v-60h218v60h-36v320c0 40 -9.33301 71 -28 93s-46.667 33 -84 33c-26 0 -48.833 -6 -68.5 -18s-40.834 -28.667 -63.501 -50v68l-182 -62v-56l36 11v-339h-36v-60h218z" />
    <glyph glyph-name="ograve" unicode="&#xf2;" 
d="M181 730l-40 -103l199 -52l20 58zM231 434c29.333 0 53.166 -22.5 71.499 -67.5s27.5 -110.5 27.5 -196.5c0 -40.667 -5.83301 -69.667 -17.5 -87s-26.167 -26 -43.5 -26c-29.333 0 -53.166 22.5 -71.499 67.5s-27.5 110.5 -27.5 196.5c0 40.667 5.83301 69.667 17.5 87
s26.167 26 43.5 26zM250 506c-36.667 0 -69.1699 -7.16797 -97.5029 -21.501s-52.166 -33.833 -71.499 -58.5s-33.666 -52.5 -42.999 -83.5s-14 -63.167 -14 -96.5s4.66699 -65.666 14 -96.999s23.5 -59.333 42.5 -84s42.833 -44.167 71.5 -58.5s61.334 -21.5 98.001 -21.5
s69.334 7.16699 98.001 21.5s52.5 34 71.5 59s33.167 53 42.5 84s14 63.167 14 96.5s-4.66699 65.5 -14 96.5s-23.5 58.833 -42.5 83.5s-42.833 44.167 -71.5 58.5s-61.334 21.5 -98.001 21.5z" />
    <glyph glyph-name="oacute" unicode="&#xf3;" 
d="M141 633l20 -58l199 52l-40 103zM231 434c29.333 0 53.166 -22.5 71.499 -67.5s27.5 -110.5 27.5 -196.5c0 -40.667 -5.83301 -69.667 -17.5 -87s-26.167 -26 -43.5 -26c-29.333 0 -53.166 22.5 -71.499 67.5s-27.5 110.5 -27.5 196.5c0 40.667 5.83301 69.667 17.5 87
s26.167 26 43.5 26zM250 506c-36.667 0 -69.1699 -7.16797 -97.5029 -21.501s-52.166 -33.833 -71.499 -58.5s-33.666 -52.5 -42.999 -83.5s-14 -63.167 -14 -96.5s4.66699 -65.666 14 -96.999s23.5 -59.333 42.5 -84s42.833 -44.167 71.5 -58.5s61.334 -21.5 98.001 -21.5
s69.334 7.16699 98.001 21.5s52.5 34 71.5 59s33.167 53 42.5 84s14 63.167 14 96.5s-4.66699 65.5 -14 96.5s-23.5 58.833 -42.5 83.5s-42.833 44.167 -71.5 58.5s-61.334 21.5 -98.001 21.5z" />
    <glyph glyph-name="ocircumflex" unicode="&#xf4;" 
d="M118 626l11 -67l121 46l120 -46l12 67l-132 81zM231 434c29.333 0 53.166 -22.5 71.499 -67.5s27.5 -110.5 27.5 -196.5c0 -40.667 -5.83301 -69.667 -17.5 -87s-26.167 -26 -43.5 -26c-29.333 0 -53.166 22.5 -71.499 67.5s-27.5 110.5 -27.5 196.5
c0 40.667 5.83301 69.667 17.5 87s26.167 26 43.5 26zM250 506c-36.667 0 -69.1699 -7.16797 -97.5029 -21.501s-52.166 -33.833 -71.499 -58.5s-33.666 -52.5 -42.999 -83.5s-14 -63.167 -14 -96.5s4.66699 -65.666 14 -96.999s23.5 -59.333 42.5 -84
s42.833 -44.167 71.5 -58.5s61.334 -21.5 98.001 -21.5s69.334 7.16699 98.001 21.5s52.5 34 71.5 59s33.167 53 42.5 84s14 63.167 14 96.5s-4.66699 65.5 -14 96.5s-23.5 58.833 -42.5 83.5s-42.833 44.167 -71.5 58.5s-61.334 21.5 -98.001 21.5z" />
    <glyph glyph-name="otilde" unicode="&#xf5;" 
d="M342 696c-4 -10.667 -9.16602 -19.834 -15.499 -27.501s-13.833 -11.5 -22.5 -11.5c-9.33301 0 -22.666 6 -39.999 18c-17.333 12.667 -31.333 19 -42 19c-23.333 0 -43.833 -10.167 -61.5 -30.5s-31.5 -43.5 -41.5 -69.5l39 -33l7 12
c4.66699 8.66699 9.33398 14.834 14.001 18.501s12 5.5 22 5.5c8 0 21.333 -5.66699 40 -17c11.333 -6.66699 20.666 -11.667 27.999 -15s14.333 -5 21 -5c21.333 0 39.166 10 53.499 30s27.166 43.667 38.499 71zM231.001 434c29.333 0 53.166 -22.5 71.499 -67.5
s27.5 -110.5 27.5 -196.5c0 -40.667 -5.83301 -69.667 -17.5 -87s-26.167 -26 -43.5 -26c-29.333 0 -53.166 22.5 -71.499 67.5s-27.5 110.5 -27.5 196.5c0 40.667 5.83301 69.667 17.5 87s26.167 26 43.5 26zM250.001 506c-36.667 0 -69.1699 -7.16797 -97.5029 -21.501
s-52.166 -33.833 -71.499 -58.5s-33.666 -52.5 -42.999 -83.5s-14 -63.167 -14 -96.5s4.66699 -65.666 14 -96.999s23.5 -59.333 42.5 -84s42.833 -44.167 71.5 -58.5s61.334 -21.5 98.001 -21.5s69.334 7.16699 98.001 21.5s52.5 34 71.5 59s33.167 53 42.5 84
s14 63.167 14 96.5s-4.66699 65.5 -14 96.5s-23.5 58.833 -42.5 83.5s-42.833 44.167 -71.5 58.5s-61.334 21.5 -98.001 21.5z" />
    <glyph glyph-name="odieresis" unicode="&#xf6;" 
d="M265 633c0 -16.667 4.66699 -32 14 -46s21.666 -21 36.999 -21c16 0 28.5 7 37.5 21s13.5 29.333 13.5 46s-4.5 32 -13.5 46s-21.5 21 -37.5 21c-15.333 0 -27.666 -7 -36.999 -21s-14 -29.333 -14 -46zM134 633c0 -16.667 4.66699 -32 14 -46s21.666 -21 36.999 -21
c16 0 28.5 7 37.5 21s13.5 29.333 13.5 46s-4.5 32 -13.5 46s-21.5 21 -37.5 21c-15.333 0 -27.666 -7 -36.999 -21s-14 -29.333 -14 -46zM231 434c29.333 0 53.166 -22.5 71.499 -67.5s27.5 -110.5 27.5 -196.5c0 -40.667 -5.83301 -69.667 -17.5 -87
s-26.167 -26 -43.5 -26c-29.333 0 -53.166 22.5 -71.499 67.5s-27.5 110.5 -27.5 196.5c0 40.667 5.83301 69.667 17.5 87s26.167 26 43.5 26zM250 506c-36.667 0 -69.1699 -7.16797 -97.5029 -21.501s-52.166 -33.833 -71.499 -58.5s-33.666 -52.5 -42.999 -83.5
s-14 -63.167 -14 -96.5s4.66699 -65.666 14 -96.999s23.5 -59.333 42.5 -84s42.833 -44.167 71.5 -58.5s61.334 -21.5 98.001 -21.5s69.334 7.16699 98.001 21.5s52.5 34 71.5 59s33.167 53 42.5 84s14 63.167 14 96.5s-4.66699 65.5 -14 96.5s-23.5 58.833 -42.5 83.5
s-42.833 44.167 -71.5 58.5s-61.334 21.5 -98.001 21.5z" />
    <glyph glyph-name="divide" unicode="&#xf7;" horiz-adv-x="600" 
d="M544 188v116h-488v-116h488zM210 447c0 -24 9.00195 -44.998 27.002 -62.998s39 -27 63 -27c25.333 0 46.666 8.66699 63.999 26s26 38.666 26 63.999c0 24 -9 45 -27 63s-39 27 -63 27c-24.667 0 -45.834 -8.83301 -63.501 -26.5s-26.5 -38.834 -26.5 -63.501z
M210.002 45.002c0 -24 9.00195 -44.998 27.002 -62.998s39 -27 63 -27c25.333 0 46.666 8.66699 63.999 26s26 38.666 26 63.999c0 24 -9 45 -27 63s-39 27 -63 27c-24.667 0 -45.834 -8.83301 -63.501 -26.5s-26.5 -38.834 -26.5 -63.501z" />
    <glyph glyph-name="oslash" unicode="&#xf8;" 
d="M180 193c-6.66699 34 -10 76.667 -10 128c0 40.667 5.83301 69.667 17.5 87s26.167 26 43.5 26c30 0 54 -23.333 72 -70zM86 -50l47.9971 66.999c34 -21.333 72.667 -32 116 -32c36.667 0 69.334 7.16699 98.001 21.5s52.5 34 71.5 59s33.167 53 42.5 84
s14 63.167 14 96.5c0 32 -4.5 63.333 -13.5 94s-22.167 57.334 -39.5 80.001l73 101h-81l-39 -54c-34 26 -76 39 -126 39c-36.667 0 -69.167 -7.16699 -97.5 -21.5s-52.166 -33.833 -71.499 -58.5s-33.666 -52.5 -42.999 -83.5s-14 -63.167 -14 -96.5
c0 -34.667 5.16699 -68.167 15.5 -100.5s25.5 -60.5 45.5 -84.5l-80 -111h81zM322.997 279.999c4.66699 -30 7 -66.667 7 -110c0 -40.667 -5.83301 -69.667 -17.5 -87s-26.167 -26 -43.5 -26c-27.333 0 -49.333 18.667 -66 56z" />
    <glyph glyph-name="ugrave" unicode="&#xf9;" 
d="M181 730l-40 -103l199 -52l20 58zM306 0h175v60h-36v341c0 31.333 1.66699 66.333 5 105l-187 -62v-56l36 11v-242c0 -19.333 -3.5 -32.666 -10.5 -39.999s-19.833 -11 -38.5 -11s-31.5 3.66699 -38.5 11s-10.5 20.666 -10.5 39.999v244c0 31.333 1.66699 66.333 5 105
l-187 -62v-56l36 11v-280c0 -44 10.333 -77.333 31 -100s49.667 -34 87 -34c52 0 93 19.667 123 59z" />
    <glyph glyph-name="uacute" unicode="&#xfa;" 
d="M141 633l20 -58l199 52l-40 103zM306 0h175v60h-36v341c0 31.333 1.66699 66.333 5 105l-187 -62v-56l36 11v-242c0 -19.333 -3.5 -32.666 -10.5 -39.999s-19.833 -11 -38.5 -11s-31.5 3.66699 -38.5 11s-10.5 20.666 -10.5 39.999v244c0 31.333 1.66699 66.333 5 105
l-187 -62v-56l36 11v-280c0 -44 10.333 -77.333 31 -100s49.667 -34 87 -34c52 0 93 19.667 123 59z" />
    <glyph glyph-name="ucircumflex" unicode="&#xfb;" 
d="M118 626l11 -67l121 46l120 -46l12 67l-132 81zM306 0h175v60h-36v341c0 31.333 1.66699 66.333 5 105l-187 -62v-56l36 11v-242c0 -19.333 -3.5 -32.666 -10.5 -39.999s-19.833 -11 -38.5 -11s-31.5 3.66699 -38.5 11s-10.5 20.666 -10.5 39.999v244
c0 31.333 1.66699 66.333 5 105l-187 -62v-56l36 11v-280c0 -44 10.333 -77.333 31 -100s49.667 -34 87 -34c52 0 93 19.667 123 59z" />
    <glyph glyph-name="udieresis" unicode="&#xfc;" 
d="M265 633c0 -16.667 4.66699 -32 14 -46s21.666 -21 36.999 -21c16 0 28.5 7 37.5 21s13.5 29.333 13.5 46s-4.5 32 -13.5 46s-21.5 21 -37.5 21c-15.333 0 -27.666 -7 -36.999 -21s-14 -29.333 -14 -46zM134 633c0 -16.667 4.66699 -32 14 -46s21.666 -21 36.999 -21
c16 0 28.5 7 37.5 21s13.5 29.333 13.5 46s-4.5 32 -13.5 46s-21.5 21 -37.5 21c-15.333 0 -27.666 -7 -36.999 -21s-14 -29.333 -14 -46zM306 0h175v60h-36v341c0 31.333 1.66699 66.333 5 105l-187 -62v-56l36 11v-242c0 -19.333 -3.5 -32.666 -10.5 -39.999
s-19.833 -11 -38.5 -11s-31.5 3.66699 -38.5 11s-10.5 20.666 -10.5 39.999v244c0 31.333 1.66699 66.333 5 105l-187 -62v-56l36 11v-280c0 -44 10.333 -77.333 31 -100s49.667 -34 87 -34c52 0 93 19.667 123 59z" />
    <glyph glyph-name="yacute" unicode="&#xfd;" horiz-adv-x="444" 
d="M113 633l20 -58l199 52l-40 103zM25 345l28.0029 17l154 -361c0 -13.333 -4.5 -23.833 -13.5 -31.5s-20.167 -11.5 -33.5 -11.5c-22 0 -42 6 -60 18l-16 -136c19.333 -5.33301 40 -8 62 -8c27.333 0 50.666 13.167 69.999 39.5s36.666 62.5 51.999 108.5l139 417
c9.33301 30 19.666 54.333 30.999 73l-21 21c-11.333 -6.66699 -22 -10 -32 -10c-8 0 -20.667 4.33301 -38 13c-18 8 -31 12 -39 12c-26 0 -47.5 -13 -64.5 -39s-30.833 -59 -41.5 -99h-2l-27 88c-5.33301 17.333 -9 34 -11 50l-153 -110zM219.003 333
c4 13.333 9.5 24.5 16.5 33.5s15.833 13.5 26.5 13.5c8.66699 0 20 -2.33301 34 -7s24.333 -7 31 -7c2 0 5 0.666992 9 2h2l-61 -173z" />
    <glyph glyph-name="thorn" unicode="&#xfe;" 
d="M213 389c7.33301 4.66699 16.999 7.00098 28.999 7.00098c13.333 0 25.333 -5.66699 36 -17s19.5 -26.666 26.5 -45.999s12.167 -40.5 15.5 -63.5s5 -46.167 5 -69.5c0 -19.333 -0.666992 -36.833 -2 -52.5s-4.16602 -30.334 -8.49902 -44.001
s-10.833 -24.834 -19.5 -33.501s-20 -13 -34 -13c-18 0 -30.5 4.83301 -37.5 14.5s-10.5 25.167 -10.5 46.5v271zM30.999 639.001v-54.001l36 10v-703h-36v-60h218v58h-36v111c16.667 -10.667 36 -16 58 -16c33.333 0 62.666 7.5 87.999 22.5s46.333 35.667 63 62
s29 56.5 37 90.5s12 70 12 108c0 32.667 -3.66699 63.5 -11 92.5s-17.666 54.5 -30.999 76.5s-29.5 39 -48.5 51s-39.5 18 -61.5 18c-18 0 -35 -3.66699 -51 -11s-34.333 -17.666 -55 -30.999v171l35 10v54z" />
    <glyph glyph-name="ydieresis" unicode="&#xff;" horiz-adv-x="444" 
d="M237 633c0 -16.667 4.66699 -32 14 -46s21.666 -21 36.999 -21c16 0 28.5 7 37.5 21s13.5 29.333 13.5 46s-4.5 32 -13.5 46s-21.5 21 -37.5 21c-15.333 0 -27.666 -7 -36.999 -21s-14 -29.333 -14 -46zM106 633c0 -16.667 4.66699 -32 14 -46s21.666 -21 36.999 -21
c16 0 28.5 7 37.5 21s13.5 29.333 13.5 46s-4.5 32 -13.5 46s-21.5 21 -37.5 21c-15.333 0 -27.666 -7 -36.999 -21s-14 -29.333 -14 -46zM25 345l28.0029 17l154 -361c0 -13.333 -4.5 -23.833 -13.5 -31.5s-20.167 -11.5 -33.5 -11.5c-22 0 -42 6 -60 18l-16 -136
c19.333 -5.33301 40 -8 62 -8c27.333 0 50.666 13.167 69.999 39.5s36.666 62.5 51.999 108.5l139 417c9.33301 30 19.666 54.333 30.999 73l-21 21c-11.333 -6.66699 -22 -10 -32 -10c-8 0 -20.667 4.33301 -38 13c-18 8 -31 12 -39 12c-26 0 -47.5 -13 -64.5 -39
s-30.833 -59 -41.5 -99h-2l-27 88c-5.33301 17.333 -9 34 -11 50l-153 -110zM219.003 333c4 13.333 9.5 24.5 16.5 33.5s15.833 13.5 26.5 13.5c8.66699 0 20 -2.33301 34 -7s24.333 -7 31 -7c2 0 5 0.666992 9 2h2l-61 -173z" />
    <glyph glyph-name="OE" unicode="&#x152;" horiz-adv-x="815" 
d="M417 683l-0.00195312 -24.999c-36.667 27.333 -80.667 41 -132 41c-45.333 0 -84.666 -10.667 -117.999 -32s-60.5 -50 -81.5 -86s-36.5 -76.333 -46.5 -121s-15 -90.667 -15 -138c0 -38 5.5 -76.833 16.5 -116.5s27.333 -76.334 49 -110.001s48.667 -60.667 81 -81
s68.5 -30.5 108.5 -30.5c52.667 0 98.667 16 138 48v-32h326v181h-63c0 -24 -1 -42.5 -3 -55.5s-5.66699 -22.833 -11 -29.5s-13.166 -11.167 -23.499 -13.5s-25.5 -3.5 -45.5 -3.5h-52v286h135v-48h63v176h-63v-49h-135v160h89c15.333 0 26.833 -5.66699 34.5 -17
s11.5 -25 11.5 -41h63v137h-326zM380.998 93.001c-4.66699 -20 -22.001 -29.9971 -52.001 -29.9971c-25.333 0 -47.166 16.167 -65.499 48.5s-33 71.666 -44 117.999s-19 91.833 -24 136.5s-7.5 79 -7.5 103c0 18.667 0.5 35.667 1.5 51s3.66699 30.666 8 45.999
s11.333 28.166 21 38.499s22.5 15.5 38.5 15.5c27.333 0 51.833 -13.667 73.5 -41s38.5 -67 50.5 -119v-367z" />
    <glyph glyph-name="oe" unicode="&#x153;" horiz-adv-x="722" 
d="M468 262c-4.66699 22.667 -6.99707 46.667 -6.99707 72c0 28 3.16699 51.667 9.5 71s18.166 29 35.499 29c10.667 0 19.667 -3.66699 27 -11s13.166 -16.666 17.499 -27.999s7.66602 -22.5 9.99902 -33.5s4.5 -23.5 6.5 -37.5c0.666992 -4.66699 1 -7.33398 1 -8.00098z
M228.003 434c29.333 0 53.166 -22.5 71.499 -67.5s27.5 -110.5 27.5 -196.5c0 -40.667 -5.83301 -69.667 -17.5 -87s-26.167 -26 -43.5 -26c-29.333 0 -53.166 22.5 -71.499 67.5s-27.5 110.5 -27.5 196.5c0 40.667 5.83301 69.667 17.5 87s26.167 26 43.5 26zM697.003 291
c-0.666992 22 -5.00293 45.499 -13.0029 70.499s-19.667 48.5 -35 70.5s-33.5 39.833 -54.5 53.5s-44.167 20.5 -69.5 20.5c-51.333 0 -93 -21.667 -125 -65c-17.333 20.667 -38.833 36.667 -64.5 48s-55.167 17 -88.5 17c-36.667 0 -69.167 -7.16699 -97.5 -21.5
s-52.166 -33.833 -71.499 -58.5s-33.666 -52.5 -42.999 -83.5s-14 -63.167 -14 -96.5s4.66699 -65.666 14 -96.999s23.5 -59.333 42.5 -84s42.833 -44.167 71.5 -58.5s61.334 -21.5 98.001 -21.5c32.667 0 61.5 6.16699 86.5 18.5s46.5 29.833 64.5 52.5
c15.333 -22.667 33 -40.167 53 -52.5s41 -18.5 63 -18.5c40 0 75.5 11.667 106.5 35s57.5 54.333 79.5 93l-25 40c-10.667 -13.333 -26 -25 -46 -35s-39.333 -15 -58 -15c-21.333 0 -39.5 8.16699 -54.5 24.5s-25.167 37.5 -30.5 63.5z" />
    <glyph glyph-name="Scaron" unicode="&#x160;" 
d="M256 732l132 81l-12 67l-120 -46l-121 46l-11 -67zM413 683l-20.001 -34c-20 15.333 -39.5 27.5 -58.5 36.5s-37.833 13.5 -56.5 13.5c-28 0 -55 -5.66699 -81 -17s-49.167 -26.833 -69.5 -46.5s-36.166 -42.5 -47.499 -68.5s-17 -53.333 -17 -82
c0 -30 5.33301 -56.667 16 -80s24.834 -43.166 42.501 -59.499s36 -30 55 -41s43.167 -23.833 72.5 -38.5c40.667 -20 70.667 -37.667 90 -53s29 -34.666 29 -57.999c0 -17.333 -6 -30.5 -18 -39.5s-27.667 -13.5 -47 -13.5c-13.333 0 -29.333 4.66699 -48 14
s-37.667 21.333 -57 36s-38 30.167 -56 46.5s-34 31.833 -48 46.5l-79 -157l7 -6c39.333 -30.667 74.333 -54.667 105 -72s62.667 -26 96 -26s65 6.16699 95 18.5s56.333 29.5 79 51.5s40.167 47.833 52.5 77.5s18.5 61.167 18.5 94.5c0 30.667 -5.5 57.667 -16.5 81
s-25.5 43.166 -43.5 59.499s-36.5 29.833 -55.5 40.5s-43.167 23 -72.5 37c-40.667 19.333 -70.334 36.166 -89.001 50.499s-28 32.833 -28 55.5c0 14 5.83301 25.833 17.5 35.5s24.5 14.5 38.5 14.5c24.667 0 48 -8 70 -24s47.333 -38.667 76 -68l21 -22l78 160z" />
    <glyph glyph-name="scaron" unicode="&#x161;" horiz-adv-x="389" 
d="M195 564l132 81l-12 67l-120 -46l-121 46l-11 -67zM23 43c20.667 -18.667 44.168 -32.998 70.501 -42.998s52.5 -15 78.5 -15c50 0 91.667 15.833 125 47.5s50 72.5 50 122.5c0 32 -10.5 59.667 -31.5 83s-51.167 48.666 -90.5 75.999c-26 18 -44.833 32.667 -56.5 44
s-17.5 23 -17.5 35c0 27.333 12.667 41 38 41c7.33301 0 16 -2.83301 26 -8.5s20.167 -12.667 30.5 -21s19.666 -16.833 27.999 -25.5s14.833 -16.334 19.5 -23.001l52 101c-23.333 15.333 -44.333 27.333 -63 36s-38.667 13 -60 13s-42 -3.66699 -62 -11
s-37.833 -17.833 -53.5 -31.5s-28 -30 -37 -49s-13.5 -39.167 -13.5 -60.5c0 -22.667 3.83301 -43 11.5 -61s17.5 -34 29.5 -48s24.5 -26 37.5 -36s29.5 -21.333 49.5 -34c23.333 -16 40.5 -29 51.5 -39s16.5 -21.333 16.5 -34c0 -10 -3.66699 -18.333 -11 -25
s-16.333 -10 -27 -10c-12 0 -24.167 3.33301 -36.5 10s-24 15 -35 25s-21 20.5 -30 31.5s-17.5 22.5 -25.5 34.5z" />
    <glyph glyph-name="Ydieresis" unicode="&#x178;" horiz-adv-x="519" 
d="M281 801c0 -16.667 4.66699 -32 14 -46s21.666 -21 36.999 -21c16 0 28.5 7 37.5 21s13.5 29.333 13.5 46s-4.5 32 -13.5 46s-21.5 21 -37.5 21c-15.333 0 -27.666 -7 -36.999 -21s-14 -29.333 -14 -46zM150 801c0 -16.667 4.66699 -32 14 -46s21.666 -21 36.999 -21
c16 0 28.5 7 37.5 21s13.5 29.333 13.5 46s-4.5 32 -13.5 46s-21.5 21 -37.5 21c-15.333 0 -27.666 -7 -36.999 -21s-14 -29.333 -14 -46zM169 -11c6.66699 3.33301 17.501 7.33301 32.501 12s25.833 7 32.5 7c10.667 0 28.667 -3.66699 54 -11
c28.667 -8.66699 50.334 -13 65.001 -13c21.333 0 45.666 6 72.999 18l34 170l-44 13c-5.33301 -13.333 -10.833 -23.333 -16.5 -30s-12.834 -10 -21.501 -10c-5.33301 0 -17.666 1.33301 -36.999 4c-18 2 -29.333 3 -34 3c-12.667 0 -23.334 -1.33301 -32.001 -4l204 456
h32v79h-148v-79h35l-88 -200l-95 200h42v79h-248v-79h35l183 -384l-92 -198z" />
    <glyph glyph-name="florin" unicode="&#x192;" horiz-adv-x="407" 
d="M63 325l-10 -60.002h81l-35 -298c-3.33301 -29.333 -11 -51.333 -23 -66s-26.667 -22 -44 -22h-27l-10 -55c24.667 -7.33301 53.334 -11 86.001 -11c51.333 0 88.666 13.167 111.999 39.5s39 64.833 47 115.5l44 297h85l4 51c-20 5.33301 -37.333 13.833 -52 25.5
s-26.5 25.167 -35.5 40.5s-15.667 30.833 -20 46.5s-6.5 30.5 -6.5 44.5c0 26 2.66699 43.5 8 52.5s15 13.5 29 13.5c12.667 0 21 -5.5 25 -16.5s7 -26.5 9 -46.5c0.666992 -3.33301 1 -6.66602 1 -9.99902l94 55c-13.333 24.667 -31 44.834 -53 60.501s-46 23.5 -72 23.5
c-45.333 0 -79.5 -13.667 -102.5 -41s-37.167 -63 -42.5 -107l-16 -132h-76z" />
    <glyph glyph-name="circumflex" unicode="&#x2c6;" horiz-adv-x="278" 
d="M7 626l11 -67l121 46l120 -46l12 67l-132 81z" />
    <glyph glyph-name="tilde" unicode="&#x2dc;" horiz-adv-x="278" 
d="M231 696c-4 -10.667 -9.16602 -19.834 -15.499 -27.501s-13.833 -11.5 -22.5 -11.5c-9.33301 0 -22.666 6 -39.999 18c-17.333 12.667 -31.333 19 -42 19c-23.333 0 -43.833 -10.167 -61.5 -30.5s-31.5 -43.5 -41.5 -69.5l39 -33l7 12
c4.66699 8.66699 9.33398 14.834 14.001 18.501s12 5.5 22 5.5c8 0 21.333 -5.66699 40 -17c11.333 -6.66699 20.666 -11.667 27.999 -15s14.333 -5 21 -5c21.333 0 39.166 10 53.499 30s27.166 43.667 38.499 71z" />
    <glyph glyph-name="endash" unicode="&#x2013;" 
d="M500 199v95h-500v-95h500z" />
    <glyph glyph-name="emdash" unicode="&#x2014;" horiz-adv-x="1000" 
d="M1000 199v95h-1000v-95h1000z" />
    <glyph glyph-name="quoteleft" unicode="&#x2018;" horiz-adv-x="185" 
d="M124 699c-29.333 -12.667 -51.666 -33.167 -66.999 -61.5s-23 -59.5 -23 -93.5c0 -18.667 5.33301 -36.5 16 -53.5s25 -25.5 43 -25.5c18.667 0 33.167 8.33301 43.5 25s15.5 34.667 15.5 54c0 14 -2.66699 27.833 -8 41.5s-13.333 23.5 -24 29.5
c2 10 5.16699 17.667 9.5 23s11.166 11 20.499 17z" />
    <glyph glyph-name="quoteright" unicode="&#x2019;" horiz-adv-x="185" 
d="M61 465c29.333 12.667 51.666 33.333 66.999 62s23 59.667 23 93c0 18.667 -5.33301 36.5 -16 53.5s-25 25.5 -43 25.5c-18.667 0 -33.167 -8.33301 -43.5 -25s-15.5 -34.667 -15.5 -54c0 -14 2.66699 -27.833 8 -41.5s13.333 -23.5 24 -29.5
c-2 -10 -5.16699 -17.667 -9.5 -23s-11.166 -11 -20.499 -17z" />
    <glyph glyph-name="quotesinglbase" unicode="&#x201a;" horiz-adv-x="185" 
d="M62 -84c29.333 12.667 51.666 33.333 66.999 62s23 59.667 23 93c0 18.667 -5.33301 36.5 -16 53.5s-25 25.5 -43 25.5c-18.667 0 -33.167 -8.33301 -43.5 -25s-15.5 -34.667 -15.5 -54c0 -14 2.66699 -27.833 8 -41.5s13.333 -23.5 24 -29.5
c-2 -10 -5.16699 -17.667 -9.5 -23s-11.166 -11 -20.499 -17z" />
    <glyph glyph-name="quotedblleft" unicode="&#x201c;" horiz-adv-x="389" 
d="M142 699c-29.333 -12.667 -51.666 -33.167 -66.999 -61.5s-23 -59.5 -23 -93.5c0 -18.667 5.33301 -36.5 16 -53.5s25 -25.5 43 -25.5c18.667 0 33.167 8.33301 43.5 25s15.5 34.667 15.5 54c0 14 -2.66699 27.833 -8 41.5s-13.333 23.5 -24 29.5
c2 10 5.16699 17.667 9.5 23s11.166 11 20.499 17zM309 699c-29.333 -12.667 -51.666 -33.167 -66.999 -61.5s-23 -59.5 -23 -93.5c0 -18.667 5.33301 -36.5 16 -53.5s25 -25.5 43 -25.5c18.667 0 33.167 8.33301 43.5 25s15.5 34.667 15.5 54c0 14 -2.66699 27.833 -8 41.5
s-13.333 23.5 -24 29.5c2 10 5.16699 17.667 9.5 23s11.166 11 20.499 17z" />
    <glyph glyph-name="quotedblright" unicode="&#x201d;" horiz-adv-x="389" 
d="M247 465c29.333 12.667 51.666 33.333 66.999 62s23 59.667 23 93c0 18.667 -5.33301 36.5 -16 53.5s-25 25.5 -43 25.5c-18.667 0 -33.167 -8.33301 -43.5 -25s-15.5 -34.667 -15.5 -54c0 -14 2.66699 -27.833 8 -41.5s13.333 -23.5 24 -29.5
c-2 -10 -5.16699 -17.667 -9.5 -23s-11.166 -11 -20.499 -17zM80 464.999c29.333 12.667 51.666 33.333 66.999 62s23 59.667 23 93c0 18.667 -5.33301 36.5 -16 53.5s-25 25.5 -43 25.5c-18.667 0 -33.167 -8.33301 -43.5 -25s-15.5 -34.667 -15.5 -54
c0 -14 2.66699 -27.833 8 -41.5s13.333 -23.5 24 -29.5c-2 -10 -5.16699 -17.667 -9.5 -23s-11.166 -11 -20.499 -17z" />
    <glyph glyph-name="quotedblbase" unicode="&#x201e;" horiz-adv-x="389" 
d="M247 -84c29.333 12.667 51.666 33.333 66.999 62s23 59.667 23 93c0 18.667 -5.33301 36.5 -16 53.5s-25 25.5 -43 25.5c-18.667 0 -33.167 -8.33301 -43.5 -25s-15.5 -34.667 -15.5 -54c0 -14 2.66699 -27.833 8 -41.5s13.333 -23.5 24 -29.5
c-2 -10 -5.16699 -17.667 -9.5 -23s-11.166 -11 -20.499 -17zM80 -84.001c29.333 12.667 51.666 33.333 66.999 62s23 59.667 23 93c0 18.667 -5.33301 36.5 -16 53.5s-25 25.5 -43 25.5c-18.667 0 -33.167 -8.33301 -43.5 -25s-15.5 -34.667 -15.5 -54
c0 -14 2.66699 -27.833 8 -41.5s13.333 -23.5 24 -29.5c-2 -10 -5.16699 -17.667 -9.5 -23s-11.166 -11 -20.499 -17z" />
    <glyph glyph-name="dagger" unicode="&#x2020;" 
d="M294 -117l0.00390625 14.002v18c0 26.667 0.833008 54.167 2.5 82.5s4.66699 57.5 9 87.5s10.166 57.667 17.499 83s16 46.333 26 63c-20 22.667 -34.167 47.5 -42.5 74.5s-12.5 56.833 -12.5 89.5v11v11c65.333 -2 124 -20.333 176 -55v192
c-52 -34.667 -110.667 -53 -176 -55c0 38.667 3.66699 73 11 103s19.666 57 36.999 81h-184c17.333 -24 29.666 -51 36.999 -81s11 -64.333 11 -103c-65.333 2 -124 20.333 -176 55v-192c52 34.667 110.667 53 176 55v-11c0.666992 -4.66699 1 -8.33398 1 -11.001
c0 -32.667 -4.16699 -62.334 -12.5 -89.001s-22.833 -51.667 -43.5 -75c10 -16.667 18.667 -37.667 26 -63s13.166 -53 17.499 -83s7.5 -59.167 9.5 -87.5s3 -55.833 3 -82.5c0 -0.666992 -0.333008 -6.66699 -1 -18v-14h88z" />
    <glyph glyph-name="daggerdbl" unicode="&#x2021;" 
d="M158 683c30 -54 46 -112 48 -174c-34 0 -65.833 4 -95.5 12s-56.5 21.333 -80.5 40v-186c24 18.667 50.833 32 80.5 40s61.5 12 95.5 12c0 -33.333 -3.83301 -61.833 -11.5 -85.5s-21.167 -43.167 -40.5 -58.5c19.333 -15.333 32.833 -34.833 40.5 -58.5
s11.5 -52.167 11.5 -85.5c-34 0 -65.833 4 -95.5 12s-56.5 21.333 -80.5 40v-186c24 18.667 50.833 32 80.5 40s61.5 12 95.5 12c-2 -62 -18 -120 -48 -174h184c-30 54 -46 112 -48 174c34 0 65.833 -4 95.5 -12s56.5 -21.333 80.5 -40v186
c-24 -18.667 -50.833 -32 -80.5 -40s-61.5 -12 -95.5 -12c0 33.333 3.83301 61.833 11.5 85.5s21.167 43.167 40.5 58.5c-19.333 15.333 -32.833 34.833 -40.5 58.5s-11.5 52.167 -11.5 85.5c34 0 65.833 -4 95.5 -12s56.5 -21.333 80.5 -40v186
c-24 -18.667 -50.833 -32 -80.5 -40s-61.5 -12 -95.5 -12c2 62 18 120 48 174h-184z" />
    <glyph glyph-name="bullet" unicode="&#x2022;" 
d="M80 340c0 -48.667 16.167 -89.167 48.5 -121.5s72.833 -48.5 121.5 -48.5s89.167 16.167 121.5 48.5s48.5 72.833 48.5 121.5s-16.167 89.167 -48.5 121.5s-72.833 48.5 -121.5 48.5s-89.167 -16.167 -121.5 -48.5s-48.5 -72.833 -48.5 -121.5z" />
    <glyph glyph-name="ellipsis" unicode="&#x2026;" horiz-adv-x="1000" 
d="M108 71c0 -18.667 5.33301 -36.5 16 -53.5s25 -25.5 43 -25.5s32.333 8.5 43 25.5s16 34.833 16 53.5s-5.33301 36.5 -16 53.5s-25 25.5 -43 25.5s-32.333 -8.5 -43 -25.5s-16 -34.833 -16 -53.5zM441 72c0 -18.667 5.33301 -36.5 16 -53.5s25 -25.5 43 -25.5
s32.333 8.5 43 25.5s16 34.833 16 53.5s-5.33301 36.5 -16 53.5s-25 25.5 -43 25.5s-32.333 -8.5 -43 -25.5s-16 -34.833 -16 -53.5zM774 71c0 -18.667 5.33301 -36.5 16 -53.5s25 -25.5 43 -25.5s32.333 8.5 43 25.5s16 34.833 16 53.5s-5.33301 36.5 -16 53.5
s-25 25.5 -43 25.5s-32.333 -8.5 -43 -25.5s-16 -34.833 -16 -53.5z" />
    <glyph glyph-name="perthousand" unicode="&#x2030;" horiz-adv-x="889" 
d="M94 -15h50l355 624h-50zM155 609c-40.667 0 -74.667 -14.833 -102 -44.5s-41 -75.167 -41 -136.5c0 -51.333 12.167 -92.5 36.5 -123.5s52.5 -46.5 84.5 -46.5c41.333 0 75.5 14.833 102.5 44.5s40.5 75.167 40.5 136.5c0 51.333 -12.167 92.5 -36.5 123.5
s-52.5 46.5 -84.5 46.5zM119 547c12.667 0 24.667 -6.83398 36 -20.501s20.833 -30.167 28.5 -49.5s13.834 -38.833 18.501 -58.5s7 -34.5 7 -44.5c0 -16.667 -3.33301 -29.834 -10 -39.501s-16.667 -14.5 -30 -14.5c-12.667 0 -24.667 6.83301 -36 20.5
s-20.833 30.334 -28.5 50.001s-13.834 39.167 -18.501 58.5s-7 34 -7 44c0 16.667 3.33301 29.834 10 39.501s16.667 14.5 30 14.5zM460 335.999c-40.667 0 -74.667 -14.833 -102 -44.5s-41 -75.167 -41 -136.5c0 -51.333 12.167 -92.5 36.5 -123.5s52.5 -46.5 84.5 -46.5
c41.333 0 75.5 14.833 102.5 44.5s40.5 75.167 40.5 136.5c0 51.333 -12.167 92.5 -36.5 123.5s-52.5 46.5 -84.5 46.5zM424 273.999c12.667 0 24.667 -6.83398 36 -20.501s20.833 -30.167 28.5 -49.5s13.834 -38.833 18.501 -58.5s7 -34.5 7 -44.5
c0 -16.667 -3.33301 -29.834 -10 -39.501s-16.667 -14.5 -30 -14.5c-12.667 0 -24.667 6.83301 -36 20.5s-20.833 30.334 -28.5 50.001s-13.834 39.167 -18.501 58.5s-7 34 -7 44c0 16.667 3.33301 29.834 10 39.501s16.667 14.5 30 14.5zM756 335.998
c-40.667 0 -74.667 -14.833 -102 -44.5s-41 -75.167 -41 -136.5c0 -51.333 12.167 -92.5 36.5 -123.5s52.5 -46.5 84.5 -46.5c41.333 0 75.5 14.833 102.5 44.5s40.5 75.167 40.5 136.5c0 51.333 -12.167 92.5 -36.5 123.5s-52.5 46.5 -84.5 46.5zM720 273.998
c12.667 0 24.667 -6.83398 36 -20.501s20.833 -30.167 28.5 -49.5s13.834 -38.833 18.501 -58.5s7 -34.5 7 -44.5c0 -16.667 -3.33301 -29.834 -10 -39.501s-16.667 -14.5 -30 -14.5c-12.667 0 -24.667 6.83301 -36 20.5s-20.833 30.334 -28.5 50.001
s-13.834 39.167 -18.501 58.5s-7 34 -7 44c0 16.667 3.33301 29.834 10 39.501s16.667 14.5 30 14.5z" />
    <glyph glyph-name="guilsinglleft" unicode="&#x2039;" horiz-adv-x="278" 
d="M146 49h65l-36 198l36 197h-65l-79 -197z" />
    <glyph glyph-name="guilsinglright" unicode="&#x203a;" horiz-adv-x="278" 
d="M132 49l79 198l-79 197h-65l36 -197l-36 -198h65z" />
    <glyph glyph-name="trademark" unicode="&#x2122;" horiz-adv-x="1000" 
d="M259 654c36.667 0 61.834 -3.5 75.501 -10.5s23.167 -23.167 28.5 -48.5h27v88h-384v-88h27c5.33301 25.333 14.833 41.5 28.5 48.5s38.834 10.5 75.501 10.5v-307c0 -16 -2.83301 -26.167 -8.5 -30.5s-19.834 -7.16602 -42.501 -8.49902v-29h224v29
c-22.667 1.33301 -36.834 4.16602 -42.501 8.49902s-8.5 14.5 -8.5 30.5v307zM663 279l16.001 -0.00195312l140 275h2v-206c0 -16.667 -2.83301 -27.167 -8.5 -31.5s-19.834 -7.16602 -42.501 -8.49902v-29h224v29c-22.667 1.33301 -36.834 4.16602 -42.501 8.49902
s-8.5 14.833 -8.5 31.5v268c0 16.667 2.83301 27.334 8.5 32.001s19.834 7.33398 42.501 8.00098v27h-139l-138 -263l-127 263h-163v-27c16 0 30.167 -5 42.5 -15s22.166 -23 29.499 -39v-220c0 -30 -2.66699 -49.667 -8 -59s-19.333 -14.333 -42 -15v-29h135v29
c-23.333 0.666992 -37.666 5.5 -42.999 14.5s-8 27.167 -8 54.5v177h2z" />
    </font>
</defs>
</svg>
